<?xml version="1.0" standalone="no"?>
<!DOCTYPE svg PUBLIC "-//W3C//DTD SVG 20010904//EN"
 "http://www.w3.org/TR/2001/REC-SVG-20010904/DTD/svg10.dtd">
<svg version="1.0" xmlns="http://www.w3.org/2000/svg"
 width="1024.000000pt" height="1024.000000pt" viewBox="0 0 1024.000000 1024.000000"
 preserveAspectRatio="xMidYMid meet">
<metadata>
Created by potrace 1.14, written by Peter Selinger 2001-2017
</metadata>
<g transform="translate(0.000000,1024.000000) scale(0.100000,-0.100000)"
fill="#000000" stroke="none">
<path d="M8164 10188 c13 -29 35 -87 49 -128 14 -41 53 -147 87 -235 34 -88
73 -193 86 -234 37 -118 97 -263 110 -268 14 -5 283 84 298 98 6 5 16 9 24 9
8 0 30 7 50 17 211 95 310 143 324 156 7 7 58 39 113 72 55 32 117 72 137 88
68 54 122 65 318 66 190 2 199 2 340 32 52 12 105 23 118 25 22 4 22 6 22 179
l0 175 -1049 0 -1050 0 23 -52z"/>
<path d="M2681 9793 c-19 -3 -48 -15 -63 -28 l-29 -24 48 -25 c216 -109 374
-343 390 -578 7 -96 1 -129 -58 -382 -22 -92 -47 -231 -57 -308 l-17 -140 -42
-17 c-23 -9 -45 -20 -49 -24 -5 -4 -1 -5 9 -1 29 11 19 -2 -22 -29 -22 -14
-50 -28 -63 -29 -31 -5 -93 -47 -104 -71 -5 -11 -31 -32 -59 -47 -27 -14 -88
-53 -135 -87 -47 -33 -100 -68 -119 -78 -18 -9 -131 -81 -250 -159 -119 -78
-237 -155 -263 -171 -92 -58 -224 -149 -291 -200 -37 -28 -105 -73 -150 -99
-45 -25 -94 -57 -109 -69 l-28 -23 64 -164 c35 -91 112 -298 170 -460 59 -162
137 -374 173 -470 36 -96 82 -224 103 -285 21 -60 58 -166 83 -235 116 -322
153 -428 212 -595 115 -327 295 -820 311 -848 12 -22 14 -46 8 -120 -7 -99 6
-191 46 -319 45 -145 172 -297 341 -406 146 -95 140 -90 127 -112 -12 -18
-121 -60 -158 -60 -10 0 -22 -5 -25 -10 -3 -6 -18 -10 -33 -10 -21 0 -24 -2
-12 -10 11 -7 7 -10 -17 -10 -18 0 -33 -5 -33 -11 0 -6 -9 -9 -20 -6 -11 3
-18 1 -15 -3 5 -9 -96 -42 -104 -35 -2 3 1 5 7 5 7 0 12 4 12 9 0 13 -121 -37
-138 -57 -9 -12 -11 -12 -6 -2 7 12 5 13 -8 3 -8 -7 -18 -10 -21 -6 -4 3 -7 1
-7 -5 0 -7 4 -12 9 -12 19 0 133 -114 152 -153 69 -134 304 -799 493 -1390 24
-76 46 -140 48 -143 3 -2 29 6 59 20 50 22 319 120 604 221 66 23 128 46 137
50 13 5 20 2 24 -11 28 -80 80 -192 96 -206 17 -16 16 -17 -34 -41 -141 -64
-195 -180 -154 -332 7 -28 18 -61 25 -72 11 -21 13 -21 56 -6 25 8 45 18 45
21 0 4 -7 32 -15 62 -20 75 -19 117 6 156 28 46 77 74 129 74 36 0 48 -6 80
-38 20 -20 45 -59 55 -87 10 -27 22 -54 25 -58 4 -5 26 -3 49 4 48 14 51 30
22 113 -40 115 -102 173 -197 184 l-42 4 -37 117 c-21 64 -40 121 -42 127 -5
13 74 49 200 94 49 17 124 47 168 66 44 19 83 33 88 30 4 -3 18 -32 30 -64 28
-78 58 -121 108 -154 37 -26 44 -37 83 -145 22 -65 61 -170 85 -233 25 -63 67
-179 94 -257 27 -77 54 -150 60 -161 6 -12 11 -44 11 -72 0 -46 2 -51 28 -61
19 -7 38 -7 65 1 20 6 37 12 37 14 0 2 -16 33 -35 70 -19 37 -53 126 -76 199
-23 73 -62 186 -87 252 -24 66 -61 177 -82 247 l-37 127 48 30 48 30 34 -40
c24 -27 42 -67 62 -131 30 -102 75 -161 131 -173 16 -3 35 -9 42 -13 16 -9 65
-126 117 -283 l38 -112 -41 -36 c-48 -42 -67 -79 -77 -143 -16 -107 55 -224
159 -263 42 -16 56 -17 103 -7 80 17 115 43 153 113 29 54 32 68 28 124 -3 48
-11 74 -33 110 -36 57 -101 106 -152 114 l-38 6 -61 180 c-84 248 -81 227 -33
254 22 13 48 31 58 42 18 19 18 19 45 -19 14 -21 60 -61 102 -88 43 -28 77
-57 79 -69 2 -11 6 -40 10 -63 6 -50 34 -109 62 -134 40 -37 89 -49 153 -39
64 11 90 22 134 58 22 18 31 21 42 12 8 -6 14 -18 14 -26 0 -30 69 -161 102
-195 20 -19 50 -38 68 -42 65 -12 178 -6 242 14 34 11 70 20 79 20 19 0 196
-75 216 -92 8 -7 28 -40 44 -74 52 -110 170 -194 275 -194 150 0 288 156 288
325 0 46 -6 81 -17 102 -9 18 -17 36 -17 42 0 5 20 21 44 35 47 27 102 88 130
144 24 46 56 196 56 261 0 47 2 52 18 46 9 -4 40 -14 68 -23 46 -13 56 -13
108 2 182 53 244 274 123 439 -37 50 -27 62 46 62 81 0 133 32 177 108 50 87
36 192 -37 277 l-37 43 38 73 c37 72 81 114 119 114 8 0 17 6 20 13 8 20 62
-105 132 -302 l65 -184 -39 -42 c-60 -65 -73 -130 -46 -222 45 -150 188 -220
307 -150 56 32 80 65 103 135 23 68 14 131 -25 195 -16 26 -25 45 -19 41 7 -4
1 7 -11 24 -15 21 -27 28 -34 23 -7 -6 -21 -4 -36 4 -14 8 -41 14 -61 15 l-36
0 -51 127 c-82 207 -152 401 -152 425 0 12 5 47 11 77 8 37 8 71 2 101 -7 34
-5 57 7 92 14 44 17 48 48 48 34 0 92 27 92 43 0 18 18 -4 25 -30 3 -16 25
-77 47 -138 108 -293 190 -510 198 -526 6 -11 3 -29 -11 -55 -26 -50 -21 -115
12 -151 20 -20 31 -24 62 -20 127 17 144 161 26 223 -21 10 -30 27 -43 81 -10
37 -29 97 -43 133 -15 36 -45 121 -69 190 -23 69 -57 166 -75 215 -29 80 -33
100 -31 180 2 74 -2 105 -23 169 -14 43 -24 79 -23 80 36 23 426 168 485 181
28 6 34 3 42 -17 6 -13 24 -58 42 -101 17 -43 38 -81 46 -84 22 -9 26 3 7 25
-19 23 -49 104 -59 160 -6 37 -5 40 27 55 77 37 140 62 248 99 63 22 150 52
192 67 43 15 80 30 84 33 3 4 -18 55 -46 115 -47 98 -170 410 -170 432 0 5
-11 33 -25 62 -48 106 -184 499 -185 535 0 18 15 25 103 53 56 17 110 31 119
31 9 0 19 4 22 8 7 11 -38 158 -70 231 -35 78 -74 222 -74 271 0 39 -1 40 -26
34 -19 -5 -25 -4 -20 5 9 13 -4 14 -24 1 -13 -9 -13 -10 0 -10 42 -1 -200 -95
-435 -170 -170 -54 -250 -82 -278 -97 -16 -8 -30 -13 -33 -10 -3 2 0 35 5 73
5 38 13 150 16 249 6 174 29 546 59 980 19 265 39 735 32 742 -2 3 -134 -47
-293 -110 -158 -63 -317 -125 -353 -137 -36 -12 -122 -46 -192 -76 -70 -30
-135 -54 -146 -54 -10 0 -57 -20 -103 -44 -46 -24 -113 -54 -149 -66 -36 -12
-157 -59 -269 -103 -141 -55 -206 -77 -209 -68 -11 32 -132 184 -200 251 -42
41 -119 121 -170 178 -160 175 -345 292 -607 382 -82 29 -155 56 -162 61 -8 8
-8 19 0 47 6 20 11 96 11 167 0 112 -4 144 -28 230 -49 173 -92 272 -226 522
-11 20 -17 40 -14 45 8 13 52 9 57 -4 4 -10 7 -10 18 0 18 17 114 15 149 -3
87 -45 104 -159 32 -215 l-25 -20 18 -58 c23 -75 60 -148 79 -155 8 -3 26 -25
40 -49 28 -48 178 -420 195 -486 12 -41 54 -92 78 -92 7 0 47 -18 89 -40 72
-39 76 -40 71 -18 -12 51 -86 247 -114 303 -17 33 -38 92 -46 130 -9 39 -29
106 -45 150 -16 44 -37 109 -47 145 -17 66 -17 66 -66 84 -62 22 -89 61 -89
129 0 98 56 156 135 141 37 -7 89 -57 106 -101 16 -44 11 -108 -11 -128 -11
-10 -20 -25 -20 -33 0 -35 123 -380 150 -421 17 -24 30 -55 30 -67 0 -12 27
-98 60 -190 33 -92 60 -172 60 -178 0 -6 11 -33 24 -61 28 -58 256 -297 256
-268 0 21 -155 485 -270 808 -111 312 -121 346 -118 374 4 32 23 37 45 12 20
-23 41 -76 149 -371 67 -184 116 -324 274 -795 52 -153 99 -254 135 -291 19
-19 28 -22 52 -15 73 22 77 35 42 123 -11 29 -40 109 -64 178 -193 555 -353
997 -435 1198 -8 18 -17 22 -58 22 -40 0 -60 7 -110 39 -87 57 -101 94 -63
170 37 72 109 97 182 63 51 -24 68 -38 92 -72 18 -25 22 -99 8 -134 -5 -13 12
-66 57 -170 35 -83 83 -207 107 -276 24 -69 72 -201 108 -295 35 -93 106 -291
158 -439 51 -148 103 -283 114 -300 19 -28 26 -31 70 -29 63 2 128 45 133 88
5 36 -24 135 -99 340 -32 88 -106 293 -164 455 -59 162 -135 369 -169 460 -95
250 -135 356 -174 460 -19 52 -40 101 -45 108 -8 10 -58 12 -241 7 -409 -10
-946 -32 -982 -41 -16 -4 -34 10 -79 61 -32 37 -54 70 -49 74 13 12 259 29
769 51 248 10 500 23 560 27 61 4 114 7 119 8 9 0 4 13 207 -530 82 -220 166
-443 185 -495 20 -52 62 -169 94 -260 32 -91 75 -205 95 -254 20 -50 61 -160
90 -245 66 -194 65 -191 79 -191 6 0 23 -7 39 -14 24 -13 27 -13 27 1 0 10 6
13 16 9 19 -7 54 20 54 41 0 22 -87 259 -161 438 -36 89 -72 186 -110 300 -17
50 -43 122 -59 160 -15 39 -46 120 -69 180 -22 61 -73 196 -112 300 -39 105
-84 224 -99 265 -15 41 -55 147 -88 235 -33 88 -63 170 -67 183 -5 16 -12 21
-22 18 -9 -4 -23 -1 -31 6 -10 9 -13 9 -9 1 11 -18 -28 -22 -348 -28 -473 -10
-1057 -41 -1214 -65 l-73 -12 -64 64 c-36 36 -100 93 -144 129 -43 35 -79 70
-80 77 0 6 -4 11 -9 10 -15 -5 -181 126 -181 142 0 12 -2 12 -9 1 -5 -8 -11
-9 -15 -3 -3 6 -30 24 -59 40 -28 16 -63 42 -76 56 -14 14 -29 26 -35 26 -6 0
0 -9 14 -20 l25 -21 -27 12 c-16 7 -28 16 -28 21 0 5 -5 6 -10 3 -6 -4 -9 -1
-8 7 2 8 -5 12 -19 11 -13 -2 -22 2 -20 8 1 6 -4 14 -12 17 -8 3 -11 0 -7 -6
4 -6 -16 -2 -44 10 -28 11 -49 23 -47 25 2 2 20 -4 40 -12 21 -8 37 -11 37 -6
0 9 -24 19 -89 40 -43 14 -60 14 -41 0 12 -9 12 -10 -3 -5 -10 3 -21 6 -23 6
-3 0 -2 4 1 10 3 6 -1 7 -10 4 -21 -8 -100 17 -84 26 6 5 -2 12 -20 18 -19 7
-31 7 -31 1 0 -5 -5 -9 -11 -9 -5 0 -7 4 -4 10 3 6 -4 9 -17 8 -38 -3 -128 23
-128 37 0 13 -3 15 -89 39 -43 12 -58 13 -70 3 -12 -10 -13 -9 -7 2 7 10 4 12
-12 7 -25 -8 -72 3 -69 16 2 11 -142 61 -158 54 -6 -2 -42 1 -80 8 -39 6 -95
11 -125 11 -30 0 -57 3 -60 6 -11 15 -275 32 -349 22z m954 -153 c13 -6 15 -9
5 -9 -8 0 -22 4 -30 9 -18 12 -2 12 25 0z m-535 -30 c100 -14 193 -35 425 -96
454 -121 746 -249 975 -427 90 -70 283 -243 351 -314 213 -221 411 -566 520
-903 32 -99 34 -113 34 -240 -1 -125 -3 -142 -32 -226 -18 -51 -61 -158 -97
-238 -36 -81 -66 -149 -66 -152 0 -9 -92 -167 -123 -211 -17 -23 -33 -40 -37
-38 -4 2 -7 -2 -7 -9 0 -7 -16 -40 -36 -73 -20 -33 -37 -66 -37 -73 0 -7 -7
-10 -15 -6 -9 3 -15 0 -15 -10 0 -8 5 -12 10 -9 6 4 10 -11 10 -37 0 -24 9
-67 20 -96 23 -60 26 -88 5 -52 -38 66 8 -124 69 -285 132 -351 154 -403 190
-453 55 -75 65 -78 119 -36 72 56 82 123 37 229 -9 22 -54 150 -100 285 -45
135 -100 291 -121 348 -21 56 -39 112 -39 124 0 18 155 298 166 298 5 0 -10
-38 -30 -75 -9 -16 -16 -38 -16 -47 0 -10 -4 -18 -9 -18 -4 0 -5 -17 -1 -39 5
-29 2 -48 -12 -77 -11 -22 -21 -65 -23 -96 -2 -31 -6 -66 -10 -77 -34 -108
155 201 204 334 65 173 82 291 66 439 -7 55 -6 58 11 52 11 -5 71 -23 134 -40
134 -38 253 -87 293 -118 20 -17 39 -55 68 -133 58 -156 144 -418 164 -495 9
-36 27 -85 41 -109 13 -24 23 -45 22 -46 -13 -11 -109 -52 -243 -105 -174 -69
-199 -82 -214 -120 -5 -14 -12 -158 -15 -320 -7 -353 -20 -667 -28 -675 -2 -3
-36 7 -74 21 -232 89 -443 133 -566 119 -89 -9 -104 -17 -378 -191 -138 -87
-134 -86 -293 -67 -62 7 -70 11 -85 38 -20 36 -33 46 -46 38 -5 -4 -7 1 -3 10
4 10 2 17 -4 17 -6 0 -9 7 -5 15 3 8 -2 19 -12 24 -9 6 -13 11 -9 11 4 0 3 6
-2 13 -6 6 -36 50 -67 97 -50 76 -165 200 -185 200 -9 0 -133 155 -193 240
-107 152 -207 260 -242 260 -2 0 8 -31 21 -69 13 -39 19 -71 14 -73 -9 -3 13
-115 31 -156 15 -35 50 -169 50 -192 0 -15 -4 -19 -12 -13 -7 4 -20 6 -29 5
-10 -2 -29 14 -45 36 -95 129 -314 361 -314 334 0 -6 6 -12 13 -15 6 -2 9 -7
6 -11 -3 -3 -30 16 -60 43 -30 27 -71 58 -92 67 -27 12 -36 22 -32 33 5 12 3
13 -6 4 -14 -14 -42 -6 -32 10 3 6 1 7 -5 3 -12 -7 -90 30 -116 56 -14 15 -14
20 0 54 22 53 150 247 213 321 120 144 220 146 547 10 201 -83 248 -97 337
-98 57 -1 132 -16 350 -69 43 -11 82 -22 88 -26 7 -4 7 2 -1 16 -6 12 -9 28
-6 36 12 31 -63 75 -84 49 -11 -13 -58 1 -153 44 -41 19 -46 25 -36 37 9 11
23 13 51 9 25 -4 38 -3 38 4 0 17 30 13 67 -10 26 -16 31 -24 21 -30 -9 -6 -5
-9 12 -9 14 0 36 -7 48 -16 13 -9 22 -11 22 -4 0 31 38 -30 63 -102 10 -29 -2
-20 -15 10 -9 21 -12 23 -15 10 -3 -10 11 -57 30 -105 44 -110 146 -417 181
-541 28 -101 67 -185 100 -218 21 -22 90 -47 100 -36 3 3 6 16 6 29 0 12 3 23
8 23 4 0 15 14 25 31 40 71 15 184 -147 656 -105 308 -130 351 -231 399 -55
26 -49 33 8 9 42 -17 47 -18 47 -6 0 10 -121 64 -136 60 -5 -1 -34 10 -64 24
-30 15 -61 27 -68 27 -6 0 -33 11 -60 24 -26 14 -108 55 -182 91 -127 63 -242
138 -284 184 -10 11 -23 18 -29 14 -6 -3 -7 -1 -3 5 4 7 -3 17 -18 23 -14 7
-23 15 -21 20 3 4 1 10 -5 14 -6 3 -37 38 -70 76 -33 38 -60 65 -60 60 0 -5 7
-17 16 -25 8 -9 11 -16 6 -16 -5 0 -22 19 -39 43 -34 47 -76 127 -68 127 3 0
1 9 -5 20 -6 11 -7 20 -3 20 4 -1 19 -24 33 -52 16 -33 26 -45 28 -34 2 9 -6
35 -17 57 -41 77 -71 270 -72 457 0 129 31 320 74 447 14 39 40 118 60 176 19
58 52 139 72 180 94 185 287 425 413 511 26 17 52 38 57 45 8 11 27 8 99 -17
50 -16 95 -30 100 -30 26 1 -143 61 -186 67 -44 5 -53 2 -115 -38 -76 -49
-198 -169 -278 -274 -155 -203 -282 -516 -346 -848 -17 -90 -29 -131 -29 -99
0 7 -3 11 -7 11 -23 -4 -28 6 -31 59 -2 34 -8 61 -17 68 -32 24 -50 168 -48
384 1 144 -1 172 -11 157 -7 -9 -17 -17 -21 -17 -5 0 -17 -8 -28 -17 -11 -10
-17 -12 -13 -5 4 6 2 12 -3 12 -6 0 -11 -10 -12 -22 0 -21 -1 -21 -8 -4 -13
34 -1 106 49 296 57 220 74 317 67 381 -12 95 -160 347 -230 389 -16 10 -46
21 -66 25 -53 10 -89 46 -38 39 12 -2 60 -8 107 -14z m587 14 c-3 -3 -12 -4
-19 -1 -8 3 -5 6 6 6 11 1 17 -2 13 -5z m-786 -1541 c-2 -31 -6 -41 -10 -30
-9 24 -14 25 -34 8 -23 -18 -21 -24 8 -38 15 -6 25 -7 25 -1 0 5 5 6 10 3 24
-15 8 -44 -37 -70 -27 -16 -66 -42 -88 -59 -22 -18 -71 -50 -110 -73 -38 -23
-101 -64 -140 -93 -38 -29 -92 -67 -120 -84 -27 -18 -95 -62 -150 -98 -55 -35
-129 -82 -165 -102 -36 -21 -74 -46 -85 -56 -18 -16 -86 -64 -278 -193 -32
-22 -56 -42 -53 -44 3 -3 -6 -15 -20 -27 l-25 -21 40 -130 c22 -72 59 -180 82
-240 41 -112 166 -456 289 -800 37 -104 100 -278 139 -385 197 -533 263 -725
253 -740 -5 -8 -7 -33 -6 -55 2 -22 1 -32 -2 -22 -8 25 -24 10 -24 -23 0 -15
-7 -30 -15 -33 -17 -7 -55 37 -55 64 0 10 -4 20 -9 24 -5 3 -17 29 -26 58 -10
28 -39 104 -65 167 -27 63 -58 141 -70 172 -12 32 -26 56 -30 53 -9 -6 -23 25
-15 33 3 3 5 -1 5 -8 0 -7 2 -11 5 -8 3 2 -3 29 -12 59 -9 30 -17 57 -17 61
-2 14 -16 21 -16 7 0 -11 -2 -11 -10 1 -13 20 -13 33 0 25 20 -12 9 13 -12 29
-15 11 -17 15 -6 12 14 -4 15 -1 6 25 -5 16 -15 26 -21 22 -6 -3 -7 -1 -3 5 4
7 -18 83 -48 169 -74 213 -87 244 -100 236 -6 -3 -8 -3 -4 2 4 4 3 14 -3 22
-6 7 -8 13 -4 13 5 0 2 8 -7 18 -22 27 -91 219 -82 233 4 7 3 10 -3 6 -6 -4
-13 2 -16 13 -3 11 0 20 6 20 7 0 4 5 -5 10 -9 6 -26 40 -38 78 -11 37 -26 75
-31 85 -6 11 -8 22 -5 25 3 3 6 -1 6 -8 0 -7 2 -11 5 -8 8 8 -6 39 -15 33 -5
-3 -6 4 -3 14 6 23 -15 91 -27 91 -5 0 -7 6 -4 14 3 8 1 17 -5 20 -6 4 -7 14
-4 23 4 9 2 14 -3 10 -6 -3 -9 6 -8 21 1 15 -18 67 -42 117 -24 49 -44 97 -44
106 0 9 -6 22 -14 28 -8 7 -12 20 -9 31 3 10 -16 64 -41 119 -25 55 -46 105
-46 110 0 6 -7 14 -16 19 -14 8 -2 19 60 58 41 27 129 86 193 132 135 95 288
197 552 368 102 65 288 187 415 271 127 83 238 152 246 152 12 1 14 -9 11 -46z
m9 -313 c-8 -5 -17 -7 -19 -4 -3 3 1 9 9 14 8 5 17 7 19 4 3 -3 -1 -9 -9 -14z
m28 -180 l-1 -55 -10 48 c-6 26 -14 47 -18 47 -4 0 -2 14 4 31 12 30 12 30 18
7 4 -13 7 -48 7 -78z m-84 -43 c54 -31 78 -67 84 -126 4 -50 4 -52 -44 -99
-27 -26 -58 -52 -69 -58 -20 -11 -20 -12 4 -90 13 -43 31 -106 39 -139 45
-180 102 -338 102 -281 0 8 16 35 35 60 38 50 42 71 22 101 -24 36 -62 158
-86 274 -9 41 -8 67 1 107 7 30 16 54 20 54 11 0 51 -67 76 -128 25 -61 77
-137 136 -199 l40 -43 -25 -27 c-43 -46 -290 -381 -378 -511 -102 -149 -204
-341 -221 -414 -18 -77 -28 -92 -47 -77 -15 13 -14 47 2 140 5 26 1 47 -13 75
-18 37 -230 665 -250 746 -8 30 -7 39 7 52 10 9 21 16 24 16 16 0 57 -107 152
-393 56 -170 110 -317 118 -328 29 -33 45 -22 83 57 l36 76 -80 242 c-44 132
-95 280 -112 329 -30 81 -34 87 -60 87 -38 0 -110 56 -133 102 -34 69 5 172
74 195 92 30 202 -45 209 -142 4 -57 0 -74 -25 -104 -24 -28 -25 -32 -12 -58
8 -15 51 -138 97 -273 45 -135 87 -251 95 -259 18 -18 28 -10 64 53 16 30 40
61 52 70 l22 15 -27 73 c-39 104 -116 386 -116 422 1 17 7 42 15 56 22 38 19
44 -38 83 -65 45 -83 75 -80 138 5 123 106 184 207 126z m663 -209 c-3 -8 -6
-5 -6 6 -1 11 2 17 5 13 3 -3 4 -12 1 -19z m-1405 -243 c41 -28 78 -82 78
-114 0 -33 -26 -88 -54 -115 l-26 -23 40 -107 c22 -58 85 -240 139 -404 55
-163 123 -360 151 -437 29 -77 63 -169 76 -205 27 -73 30 -147 13 -249 -13
-74 -21 -66 -33 32 -8 60 -66 241 -136 423 -22 55 -76 213 -120 350 -45 137
-106 321 -136 409 -53 158 -54 160 -92 176 -47 20 -89 69 -97 113 -9 46 12
114 45 148 38 37 99 39 152 3z m4026 -112 c126 -127 250 -271 292 -342 22 -37
56 -82 75 -101 19 -19 35 -37 35 -41 0 -4 -33 -21 -72 -37 -40 -17 -90 -38
-111 -47 l-38 -16 -56 118 c-146 311 -172 369 -178 404 -3 16 -14 52 -25 79
-11 28 -20 53 -20 55 0 17 30 -5 98 -72z m2116 22 c-1 -17 -9 -115 -17 -220
-9 -104 -18 -253 -21 -330 -6 -138 -13 -231 -21 -271 -3 -15 -13 -20 -39 -21
-30 -1 -36 3 -49 36 -14 32 -15 34 -17 11 -1 -23 -2 -24 -11 -5 -7 16 -8 13
-4 -12 2 -18 0 -33 -5 -33 -6 0 -10 19 -11 43 0 23 -5 51 -10 62 -6 13 -7 -3
-3 -46 7 -79 1 -104 -29 -114 -21 -8 -21 -8 4 -12 21 -3 26 -9 22 -23 -3 -11
2 -27 11 -35 9 -9 16 -26 17 -38 0 -12 3 -16 6 -9 2 6 9 10 14 6 5 -3 9 -1 9
5 0 5 -6 11 -12 13 -14 5 -1 22 42 51 45 31 50 24 50 -68 l0 -85 -47 -21 c-26
-12 -61 -22 -78 -23 -26 -1 -30 3 -33 27 -2 15 -8 27 -13 27 -5 0 -9 10 -9 22
0 12 -3 18 -7 15 -4 -4 -6 -32 -4 -61 2 -49 0 -56 -23 -71 -33 -22 -54 -14
-58 22 -4 25 -6 23 -18 -19 -11 -37 -21 -51 -46 -63 -62 -29 -73 -21 -81 58
-3 29 -7 54 -9 56 -7 8 18 41 31 41 8 0 15 6 15 14 0 16 61 30 90 21 12 -4 26
1 39 14 11 11 27 18 35 15 15 -6 56 32 56 50 0 6 -7 20 -15 30 -8 11 -15 28
-15 39 0 10 -4 16 -9 12 -5 -3 -12 7 -14 22 l-4 28 -2 -30 c-1 -22 -9 -35 -31
-47 -42 -24 -65 -12 -76 41 -1 8 -7 17 -12 20 -6 3 -13 23 -17 44 -4 20 -12
37 -17 37 -6 0 -7 -7 -4 -15 3 -9 8 -55 12 -104 4 -72 3 -90 -10 -100 -9 -7
-23 -10 -32 -7 -14 5 -15 16 -10 67 4 33 10 67 13 75 3 8 1 14 -5 14 -20 0
-44 -71 -40 -121 1 -27 0 -49 -4 -49 -5 0 -8 42 -8 94 0 52 -4 98 -10 101 -6
4 -9 -35 -7 -107 l2 -113 -27 -3 c-16 -2 -28 1 -28 7 0 6 -6 10 -12 8 -9 -1
-12 9 -10 33 2 21 -3 43 -13 55 -15 19 -16 16 -11 -40 6 -69 -2 -89 -38 -90
-17 -1 -33 -13 -49 -36 -17 -25 -31 -34 -53 -35 -68 -2 -64 6 -63 -106 1 -93
2 -99 12 -60 5 23 13 42 18 42 4 0 14 6 21 14 21 21 75 46 98 46 11 0 20 5 20
11 0 16 71 42 83 30 6 -6 12 -36 15 -67 4 -51 2 -59 -19 -75 -32 -25 -46 -24
-55 3 -6 20 -8 19 -21 -14 -11 -27 -23 -38 -53 -48 -22 -7 -48 -22 -57 -33
-14 -15 -15 -19 -3 -15 22 7 45 -19 31 -36 -18 -21 -1 -26 34 -9 53 25 65 14
65 -63 0 -49 -5 -73 -17 -86 -34 -38 -53 -18 -53 60 -1 44 -1 46 -16 27 -12
-15 -14 -33 -10 -72 6 -50 5 -53 -18 -59 -36 -9 -44 0 -51 61 -8 61 -20 71
-29 25 -3 -16 -9 -43 -12 -60 -7 -38 -59 -84 -82 -71 -10 6 -20 4 -29 -5 -16
-15 -43 -8 -43 12 0 20 -13 17 -45 -10 -15 -13 -51 -32 -81 -42 -30 -10 -54
-23 -54 -29 0 -13 -59 -60 -76 -60 -7 0 -27 -13 -44 -28 -63 -56 -143 -43
-119 20 5 14 6 29 3 35 -3 5 9 22 27 37 l33 28 -29 24 c-51 43 -65 59 -65 74
0 8 -4 15 -9 15 -5 0 -13 10 -17 23 -10 33 -44 51 -44 23 0 -8 -5 -16 -12 -18
-10 -4 -10 -13 -2 -40 14 -43 5 -61 -37 -78 -26 -11 -32 -11 -40 1 -7 11 -9 9
-9 -7 0 -29 -19 -42 -75 -53 -26 -5 -60 -18 -76 -30 -38 -28 -59 -27 -59 3 0
14 10 30 26 41 14 9 23 19 21 22 -3 2 -22 -7 -43 -21 -20 -14 -41 -23 -46 -19
-6 3 -7 -13 -3 -39 6 -41 5 -45 -20 -56 -37 -17 -48 -7 -40 39 5 28 3 39 -6
39 -21 0 -38 -34 -32 -63 4 -20 0 -34 -17 -52 -29 -31 -48 -32 -61 -2 -9 20
-9 20 -4 -5 4 -20 0 -30 -14 -37 -10 -6 -21 -8 -24 -4 -4 3 -9 -2 -13 -11 -9
-22 -54 -21 -55 2 0 12 -3 10 -12 -8 -6 -14 -16 -28 -22 -32 -17 -13 -117 -39
-123 -33 -3 3 -8 34 -10 68 -3 51 -1 65 14 78 23 20 97 49 124 49 11 0 20 4
20 9 0 5 8 12 18 14 12 4 11 5 -6 6 -12 0 -26 9 -29 19 -4 9 -12 23 -19 29 -7
8 -10 28 -7 52 6 42 -4 117 -14 107 -3 -3 -5 -39 -4 -79 1 -51 -2 -77 -11 -84
-14 -11 -68 -27 -81 -24 -5 1 -6 -3 -3 -8 4 -5 2 -12 -4 -16 -6 -4 -10 20 -11
67 -3 155 -17 -21 -23 -287 -4 -143 -9 -337 -12 -432 -6 -169 -7 -172 -31
-188 -14 -9 -27 -15 -29 -12 -3 2 0 141 5 308 6 167 16 446 21 619 10 292 22
546 36 748 l6 83 38 19 c21 11 74 33 117 49 43 16 173 68 288 116 267 110 524
215 790 322 198 80 258 104 480 190 167 64 219 85 415 163 261 104 266 105
264 55z m-6774 4 c0 -6 -4 -7 -10 -4 -5 3 -10 11 -10 16 0 6 5 7 10 4 6 -3 10
-11 10 -16z m3015 -449 c3 -5 2 -10 -4 -10 -5 0 -13 5 -16 10 -3 6 -2 10 4 10
5 0 13 -4 16 -10z m598 -67 c35 -70 49 -107 181 -463 74 -199 85 -240 68 -240
-27 0 -75 114 -186 436 -30 88 -69 191 -86 228 -52 118 -33 151 23 39z m-459
-192 c80 -159 261 -667 249 -698 -13 -33 -101 162 -153 336 -26 89 -107 303
-149 395 -35 78 -37 88 -15 79 8 -3 39 -53 68 -112z m3114 -489 c3 -67 -7 -92
-38 -92 -26 0 -36 128 -12 147 34 26 47 12 50 -55z m-4815 17 c70 -36 220
-154 273 -214 65 -75 213 -319 201 -331 -3 -3 -33 5 -68 16 -34 12 -90 23
-123 25 -34 2 -99 7 -146 11 -78 6 -84 6 -71 -9 11 -14 11 -17 0 -17 -8 0 5
-9 27 -19 23 -10 45 -24 49 -31 5 -9 2 -10 -11 -3 -16 8 -67 10 -84 4 -3 -1
27 -13 66 -25 38 -13 91 -38 116 -57 25 -19 54 -39 64 -46 10 -7 -1 -4 -26 7
-57 25 -125 27 -116 5 3 -9 -1 -18 -9 -21 -8 -4 -12 -11 -8 -17 4 -6 -4 -8
-23 -3 l-29 6 30 -25 c17 -14 63 -53 102 -86 75 -61 103 -101 103 -141 0 -36
-10 -45 -100 -89 -72 -35 -102 -58 -207 -162 -68 -67 -134 -138 -148 -157 -13
-19 -42 -55 -64 -80 -52 -59 -68 -47 -45 31 30 100 58 152 113 206 30 29 51
56 47 60 -5 5 -26 -12 -48 -37 l-39 -45 5 55 c3 30 8 150 11 265 13 498 34
781 65 870 30 87 28 86 93 54z m5233 -51 c-14 -124 -17 -136 -40 -141 -11 -2
-29 -8 -38 -12 -16 -6 -18 -1 -18 48 0 39 -4 56 -15 61 -25 9 -5 35 35 47 23
7 42 21 49 35 21 47 34 28 27 -38z m-4839 13 c10 -15 10 -21 0 -24 -7 -3 -4
-6 6 -6 9 -1 17 -6 17 -12 0 -5 5 -7 12 -3 7 5 9 2 5 -8 -3 -9 0 -21 6 -28 7
-7 -2 -3 -20 9 -39 26 -48 39 -48 69 -1 27 6 28 22 3z m4701 -85 c0 -25 3 -54
7 -65 9 -29 -42 -78 -61 -59 -7 7 -14 25 -16 39 -2 14 -11 34 -21 43 -25 26
-21 39 21 62 59 35 70 31 70 -20z m-120 -63 c0 -27 2 -61 4 -78 2 -24 -2 -31
-24 -39 -35 -12 -39 -8 -41 48 -2 33 -6 46 -19 50 -32 8 -19 34 25 49 23 9 45
16 49 16 4 1 7 -20 6 -46z m-106 -23 c-5 -22 -4 -41 3 -81 7 -34 5 -37 -24
-47 -35 -12 -42 -6 -45 42 -1 20 -4 22 -15 13 -12 -10 -14 -9 -9 5 4 9 0 24
-8 35 -14 16 -15 12 -10 -50 l5 -68 -34 -16 c-44 -21 -51 -14 -60 59 -6 51 -5
59 11 64 11 4 29 16 41 27 13 11 26 18 29 15 3 -3 17 0 32 8 35 19 88 15 84
-6z m-3897 -80 c38 -68 92 -199 82 -197 -18 3 -67 90 -61 108 2 9 -1 23 -8 30
-20 21 -50 91 -37 87 6 -2 17 -15 24 -28z m4244 -65 c1 -69 -2 -85 -14 -85
-10 0 -16 11 -17 33 -2 48 -4 60 -13 81 -6 14 -2 24 14 38 13 10 25 18 26 18
2 0 4 -38 4 -85z m-61 -7 c2 -29 4 -62 5 -73 1 -11 -2 -21 -8 -23 -11 -3 -29
113 -21 135 11 28 22 11 24 -39z m-4208 21 c0 -6 -4 -7 -10 -4 -5 3 -10 11
-10 16 0 6 5 7 10 4 6 -3 10 -11 10 -16z m4158 -26 c1 -21 3 -53 4 -72 2 -26
-2 -37 -21 -49 l-24 -17 6 40 c4 22 10 50 13 63 8 27 -11 30 -38 5 -12 -10
-18 -12 -18 -4 0 7 -5 9 -11 5 -10 -6 -9 -62 2 -102 4 -15 -26 -40 -37 -30 -3
4 -8 28 -9 55 -2 27 -8 48 -14 47 -6 -1 -23 -2 -37 -2 -24 -2 -25 -5 -23 -52
2 -27 0 -53 -4 -56 -13 -14 -7 -34 11 -34 13 -1 11 -4 -8 -15 -41 -23 -45 -19
-45 49 0 44 -4 62 -11 59 -7 -2 -15 0 -18 6 -9 14 22 41 48 41 13 0 49 14 80
30 31 17 61 28 66 25 5 -3 19 6 32 20 32 37 53 33 56 -12z m-310 -130 c18 -59
22 -106 10 -120 -18 -22 -28 -14 -29 25 l-1 37 -11 -45 c-8 -28 -18 -45 -27
-45 -15 0 -17 10 -19 90 -1 59 -20 31 -27 -43 -6 -54 -11 -66 -36 -83 -16 -12
-35 -18 -43 -15 -16 6 -39 81 -30 96 13 22 -8 31 -22 10 -11 -15 -13 -37 -9
-80 4 -52 2 -61 -14 -70 -27 -14 -32 -13 -25 10 10 33 -26 21 -38 -12 -3 -10
-11 -18 -16 -18 -17 0 -30 35 -37 102 l-6 64 43 17 c40 16 44 16 63 0 12 -10
18 -14 14 -9 -4 5 9 19 28 32 44 30 114 66 114 59 0 -3 11 2 25 11 14 9 34 14
45 11 11 -3 20 -1 20 4 0 23 18 5 28 -28z m-5629 -25 c10 -30 9 -31 -4 -14 -8
11 -15 26 -15 33 0 22 8 14 19 -19z m6884 -73 c3 -20 20 -72 37 -116 17 -44
29 -83 26 -87 -2 -4 -59 -25 -125 -47 -106 -35 -120 -43 -121 -63 0 -21 61
-195 273 -777 117 -321 115 -316 134 -338 9 -9 13 -20 10 -23 -8 -8 -228 -84
-243 -84 -6 0 -17 26 -23 58 -6 31 -29 107 -50 167 -152 432 -182 518 -206
580 -15 39 -49 132 -75 209 -27 76 -50 140 -52 142 -2 1 -59 -17 -127 -41 -68
-24 -127 -42 -132 -40 -4 3 -17 37 -29 77 -12 40 -33 94 -46 120 l-24 48 27 0
c16 0 60 12 98 26 39 14 113 40 165 59 194 67 347 123 405 147 33 14 63 24 66
22 4 -2 9 -20 12 -39z m-859 -37 c-4 -24 -9 -46 -13 -49 -3 -4 -49 -23 -101
-42 -104 -38 -204 -81 -380 -162 -63 -30 -139 -63 -169 -75 -29 -11 -89 -39
-134 -61 -44 -22 -123 -58 -176 -80 -53 -23 -157 -69 -231 -104 -310 -144
-290 -136 -306 -120 -9 8 -12 20 -8 26 5 8 3 9 -5 5 -7 -5 -10 -14 -7 -21 2
-7 -1 -18 -7 -24 -6 -6 -7 -11 -2 -11 36 0 -100 -63 -273 -125 -103 -38 -186
-76 -376 -171 -138 -69 -149 -70 -144 -9 3 25 13 35 67 67 36 20 119 58 185
84 67 26 159 64 206 84 149 67 298 130 304 130 8 0 313 137 401 180 184 90
479 221 940 419 99 42 189 82 200 89 32 18 36 15 29 -30z m-789 -64 c4 -47 4
-89 -1 -93 -5 -5 -21 -11 -36 -15 -26 -6 -26 -5 -25 47 1 28 -2 68 -6 88 -6
31 -4 37 15 47 43 20 46 15 53 -74z m-590 37 c-4 -19 -1 -34 9 -44 19 -18 21
-31 4 -21 -7 4 -8 3 -4 -5 12 -18 -71 -80 -107 -81 -11 0 -32 -9 -48 -21 -38
-27 -59 -19 -59 23 0 18 -6 45 -14 59 -7 15 -11 31 -7 36 5 9 78 37 91 36 3
-1 14 4 25 10 30 17 78 34 98 36 15 1 17 -4 12 -28z m467 -26 c-2 -15 1 -25 5
-22 4 3 8 -5 9 -16 0 -12 4 -43 8 -69 7 -42 6 -47 -14 -58 -29 -16 -67 1 -80
35 -12 32 -30 32 -30 1 0 -38 10 -56 34 -56 20 -1 20 -1 2 -15 -26 -19 -120
-39 -124 -25 -2 5 -8 10 -13 10 -6 0 -7 -5 -4 -10 9 -15 -14 -40 -30 -34 -8 3
-24 -1 -37 -10 -33 -23 -78 -21 -78 3 0 11 -5 23 -11 26 -6 4 -9 -4 -7 -22 2
-23 -1 -29 -19 -31 -20 -3 -23 1 -23 32 0 45 -29 65 -54 37 -18 -19 -14 -65 9
-111 12 -24 12 -25 -19 -25 -21 0 -30 -4 -28 -13 1 -8 -2 -12 -9 -10 -14 5
-37 70 -44 125 -5 39 -2 44 22 57 16 7 42 17 60 20 17 4 34 14 37 22 3 8 12
14 20 14 7 0 27 7 42 15 16 8 39 15 50 15 12 0 27 7 34 15 7 8 18 15 25 15 7
0 39 13 71 30 32 16 64 30 70 30 5 0 15 -12 21 -27 l11 -28 1 35 c1 25 9 40
29 56 37 31 68 25 64 -11z m-1860 -10 c29 -7 78 -23 108 -34 66 -25 220 -145
220 -172 0 -10 5 -21 10 -24 13 -8 13 -55 -1 -55 -5 0 -47 24 -92 54 -180 118
-291 164 -418 173 -79 6 -149 -2 -149 -16 0 -5 44 -16 98 -26 149 -26 222 -62
391 -193 84 -65 99 -92 62 -112 -47 -25 -101 -3 -217 85 -113 86 -231 127
-371 127 -126 1 -137 -13 -31 -41 162 -42 184 -53 341 -164 98 -70 115 -95 85
-125 -30 -30 -100 -10 -188 53 -130 94 -298 143 -385 112 l-39 -14 95 -37 c92
-35 224 -109 262 -145 22 -22 13 -49 -20 -57 -36 -9 -83 1 -161 35 -39 17 -83
31 -99 31 -16 0 -34 5 -41 12 -15 15 -46 1 -121 -55 -64 -48 -75 -55 -151 -96
-69 -36 -129 -46 -205 -32 -32 6 -61 9 -64 6 -26 -27 131 -49 212 -30 32 7 63
18 70 23 7 5 23 13 36 17 27 8 141 83 157 104 9 11 11 10 11 -4 0 -10 -25 -43
-56 -75 -116 -118 -300 -167 -428 -114 -39 17 -39 17 -47 81 -7 65 15 199 45
259 28 59 74 92 270 193 87 45 207 113 268 151 151 95 183 110 255 120 77 11
217 4 288 -15z m1148 -38 c0 -7 -6 -19 -12 -25 -10 -10 -10 -15 1 -21 15 -10
24 -80 13 -96 -8 -11 -73 -47 -78 -43 -2 3 -11 76 -17 137 -1 17 6 29 28 42
36 21 65 24 65 6z m-116 -74 c2 -10 8 -42 11 -70 7 -51 6 -53 -21 -63 -38 -15
-45 -10 -60 41 -6 24 -15 54 -19 65 -5 18 -1 24 22 32 42 16 61 14 67 -5z
m-2919 -41 c-3 -3 -11 0 -18 7 -9 10 -8 11 6 5 10 -3 15 -9 12 -12z m2814 -32
c15 -71 14 -88 -8 -100 -27 -14 -51 -13 -51 3 0 24 -21 87 -29 87 -4 0 -13
-11 -21 -24 -11 -21 -10 -30 8 -66 20 -40 20 -41 0 -51 -11 -6 -26 -8 -33 -5
-7 2 -16 -5 -21 -17 -6 -17 -8 -12 -11 23 -8 111 -33 126 -33 20 l0 -69 -35
-17 c-20 -9 -37 -15 -39 -13 -2 2 -6 37 -8 76 -5 67 -4 73 16 79 11 3 36 17
53 31 18 13 52 30 75 39 23 8 49 21 58 28 16 14 38 24 57 25 6 1 16 -22 22
-49z m1831 -116 c43 -25 85 -53 93 -62 15 -18 81 -182 75 -186 -9 -8 -221
-106 -223 -104 -1 2 -10 26 -19 55 -21 65 -67 107 -105 98 -32 -7 -179 -77
-205 -97 -18 -14 -17 -18 14 -131 38 -138 54 -157 132 -157 27 0 100 14 162
30 112 30 115 30 162 14 70 -24 196 -88 217 -111 29 -33 147 -368 147 -419 0
-33 -12 -67 -51 -141 -27 -54 -58 -106 -67 -115 -29 -29 -341 -142 -392 -142
-61 0 -195 57 -241 103 -26 26 -43 59 -62 116 -15 44 -27 85 -27 91 0 10 208
114 229 114 5 0 12 -17 16 -38 9 -53 39 -100 70 -108 30 -7 141 19 197 47 52
27 81 67 74 104 -13 67 -79 226 -99 237 -34 18 -87 11 -215 -27 l-122 -37 -82
33 c-178 71 -194 90 -269 316 -38 112 -57 187 -54 202 10 42 95 215 117 238
11 12 37 28 57 34 41 13 231 93 269 113 31 16 85 -2 202 -70z m-1474 -10 c8
-73 7 -89 -6 -102 -13 -14 -16 -12 -22 24 -4 21 -7 53 -7 71 -1 17 -5 34 -10
38 -6 3 -7 -24 -4 -68 4 -48 2 -77 -5 -81 -10 -6 -13 7 -26 124 -5 41 -2 47
22 62 15 9 32 17 38 17 6 1 15 -34 20 -85z m-2341 14 c-135 -110 -175 -207
-175 -420 0 -90 -2 -98 -19 -98 -11 0 -28 -11 -39 -25 -11 -14 -24 -25 -29
-25 -4 0 -21 -12 -37 -27 l-29 -26 -33 18 c-19 10 -34 23 -34 29 0 6 -4 5 -9
-2 -14 -23 -21 68 -11 159 10 95 59 260 92 309 20 29 40 40 143 76 66 23 131
46 145 52 14 6 36 11 50 11 23 1 22 -1 -15 -31z m1678 -58 c2 -81 1 -85 -20
-88 -21 -3 -23 1 -23 43 0 27 -4 44 -10 40 -5 -3 -12 6 -16 20 -5 20 -1 32 17
51 40 42 51 29 52 -66z m538 73 c3 -39 7 -59 18 -86 14 -35 14 -77 1 -77 -5 0
-10 14 -10 31 0 19 -4 28 -11 23 -6 -4 -9 -19 -5 -37 6 -29 -7 -57 -25 -57 -5
0 -9 17 -9 38 0 63 -12 112 -26 112 -27 0 -14 36 19 53 42 21 47 21 48 0z
m283 -18 c19 -29 20 -35 5 -35 -14 0 -38 30 -39 48 0 20 17 14 34 -13z m61
-15 c-28 -12 -37 -12 -30 0 3 6 16 10 28 9 21 0 21 -1 2 -9z m-2927 -27 c-14
-16 -32 -39 -41 -53 -30 -48 -79 -215 -90 -307 -11 -94 -19 -112 -31 -70 l-7
22 -17 -24 c-9 -14 -32 -59 -50 -100 -69 -157 -76 -171 -84 -171 -5 0 -6 5 -3
10 3 6 1 10 -4 10 -15 0 -14 -27 2 -33 6 -3 2 -6 -11 -6 -13 -1 -21 3 -17 8 3
5 -8 3 -25 -5 -38 -20 -38 -28 0 -20 19 3 30 1 30 -6 0 -6 -2 -9 -6 -6 -3 3
-20 2 -39 -2 -23 -5 -35 -4 -38 4 -2 6 -8 8 -12 4 -4 -4 -2 -14 5 -23 16 -20
6 -19 -14 1 -10 10 -16 11 -16 4 0 -7 -7 -9 -16 -6 -8 3 -13 2 -10 -3 3 -5 -1
-12 -10 -15 -8 -3 -13 -2 -9 3 3 5 2 16 -1 25 -5 13 -9 12 -24 -7 -10 -12 -16
-26 -13 -31 3 -4 9 -2 14 5 5 8 9 9 9 3 0 -18 -13 -24 -27 -13 -9 8 -17 8 -26
1 -10 -9 -19 -8 -34 3 -12 8 -29 12 -37 9 -9 -3 -22 -1 -29 5 -10 8 -14 7 -14
-4 0 -8 5 -11 10 -8 5 3 8 0 5 -7 -2 -8 -14 -14 -25 -15 -12 -1 -29 -9 -38
-18 -17 -17 -40 -14 -30 4 8 12 -9 11 -40 -3 -22 -10 -29 -8 -53 13 -15 13
-24 20 -20 15 4 -5 3 -15 -3 -23 -12 -14 -30 -18 -28 -5 3 19 -2 25 -12 12 -8
-12 -9 -8 -7 15 2 20 -1 29 -10 28 -6 -2 -12 2 -12 7 0 6 4 10 9 10 5 0 12 7
15 16 4 10 2 13 -6 8 -8 -5 -9 0 -3 17 18 56 7 127 -25 159 -20 20 -23 21 -40
5 -10 -9 -31 -41 -46 -71 -15 -30 -30 -52 -32 -49 -3 3 -11 0 -19 -6 -20 -17
-16 2 14 73 72 168 193 326 307 400 55 35 195 88 234 88 11 0 2 -15 -29 -47
-69 -72 -201 -308 -255 -457 -13 -34 -12 -37 1 -26 9 7 54 70 102 139 100 147
234 313 295 366 60 52 113 81 208 116 l82 30 -56 -63 c-53 -59 -103 -144 -92
-155 3 -3 20 12 38 33 86 100 151 161 200 186 70 36 89 36 56 1z m2483 -20
c11 -27 24 -72 36 -123 6 -23 5 -24 -11 -7 -10 9 -14 21 -11 27 3 5 2 10 -3
10 -5 0 -12 -9 -15 -19 -2 -10 -14 -24 -25 -30 -20 -11 -21 -9 -18 41 3 68 -2
88 -21 81 -13 -5 -14 -18 -9 -74 5 -55 3 -68 -10 -73 -17 -7 -40 38 -50 101
l-6 40 53 26 c69 33 77 33 90 0z m-174 -143 c12 -71 7 -100 -15 -86 -10 6 -25
63 -27 103 -1 26 -12 40 -22 29 -4 -3 -2 -27 5 -51 16 -59 16 -98 0 -93 -11 4
-36 104 -37 150 -1 18 20 27 59 25 23 -2 26 -8 37 -77z m-549 5 c-7 -8 -42
-25 -78 -40 -36 -15 -90 -42 -120 -60 -30 -18 -91 -51 -135 -73 -44 -22 -95
-54 -114 -71 -19 -17 -63 -45 -98 -63 -61 -30 -85 -48 -66 -48 4 0 45 12 91
27 82 27 83 27 116 9 40 -21 73 -14 166 36 188 102 218 118 228 118 16 0 15
-45 0 -58 -7 -5 -26 -13 -43 -16 -16 -4 -46 -21 -65 -37 -23 -20 -28 -28 -15
-24 39 13 115 28 119 24 9 -11 14 -56 7 -67 -5 -8 -60 -15 -172 -22 -90 -6
-240 -17 -334 -26 -93 -9 -215 -20 -270 -25 -180 -16 -318 -28 -410 -34 l-90
-6 73 30 c40 16 168 77 285 135 198 98 215 104 258 99 69 -8 158 14 189 47 22
24 35 28 100 32 90 6 145 29 167 72 19 37 30 46 63 46 14 0 54 13 90 28 l65
28 3 -24 c2 -14 -2 -30 -10 -37z m427 10 c1 -11 5 -45 10 -76 6 -48 4 -57 -10
-63 -26 -10 -33 0 -40 59 -4 30 -11 55 -16 55 -5 0 -7 -10 -5 -22 3 -13 7 -36
10 -53 2 -16 8 -38 11 -47 5 -13 0 -20 -19 -28 -35 -13 -56 -3 -72 34 l-13 31
-1 -37 c0 -24 -8 -46 -24 -65 l-25 -28 6 73 c4 51 3 72 -6 72 -6 0 -11 9 -11
21 0 13 11 25 35 35 19 7 38 14 43 14 5 0 14 -24 21 -52 12 -55 26 -86 35 -77
3 3 -1 32 -9 64 -19 78 -20 72 18 95 38 24 60 22 62 -5z m-3738 -37 c-3 -7 -5
-2 -5 12 0 14 2 19 5 13 2 -7 2 -19 0 -25z m3323 -51 c0 -13 -8 -31 -17 -39
-10 -8 -98 -54 -195 -103 -174 -85 -179 -87 -203 -71 -34 22 -32 29 13 49 22
9 99 48 172 86 205 108 230 116 230 78z m1485 -51 c49 -24 103 -58 120 -76 24
-25 52 -97 146 -378 64 -191 138 -408 164 -482 55 -154 55 -163 -11 -295 -56
-112 -67 -122 -190 -165 -60 -21 -138 -50 -174 -66 -97 -41 -148 -38 -253 14
-50 25 -94 54 -106 70 -19 27 -176 479 -241 692 -16 52 -45 139 -64 194 l-35
99 23 63 c29 80 98 196 132 223 14 11 60 34 102 50 42 16 113 46 157 65 44 20
93 36 110 36 16 0 70 -20 120 -44z m-731 -671 c59 -170 150 -440 202 -600 53
-159 106 -306 119 -326 l24 -37 -87 -32 c-73 -28 -150 -60 -184 -78 -5 -2 -8
14 -8 35 0 22 -35 141 -79 273 -106 317 -96 294 -123 276 -13 -8 -90 -38 -173
-66 -82 -28 -153 -55 -157 -59 -4 -4 17 -79 48 -166 30 -88 68 -202 83 -253
16 -51 38 -103 50 -116 11 -12 21 -27 21 -32 0 -6 -58 -33 -128 -60 l-129 -50
-11 55 c-7 31 -34 121 -60 201 -27 80 -122 363 -210 629 -89 266 -168 494
-177 507 -18 28 -23 25 128 50 94 16 109 16 118 4 5 -8 25 -64 44 -125 20 -60
56 -170 82 -244 l46 -133 36 6 c34 5 243 79 304 107 15 7 27 19 27 27 0 21
-148 461 -167 495 -8 16 -13 30 -11 32 1 1 51 22 110 45 59 23 111 46 115 52
3 7 14 -15 23 -48 10 -32 65 -198 124 -369z m-771 348 c3 -5 7 -29 11 -54 l7
-47 -111 -1 c-61 -1 -121 -6 -133 -10 -12 -5 -51 -11 -87 -15 -141 -14 -662
-48 -785 -51 -71 -2 -160 -7 -196 -10 -52 -5 -68 -4 -78 9 -16 19 -11 59 9 68
11 5 9 7 -7 7 -13 1 -23 6 -23 11 0 6 45 10 114 10 63 0 170 4 238 10 68 5
213 14 323 20 110 6 268 20 350 30 202 26 209 27 292 28 39 1 74 -1 76 -5z
m-1539 -77 c-6 -16 -73 -51 -81 -42 -3 2 5 7 16 11 12 3 21 11 21 16 0 5 7 9
15 9 9 0 18 7 22 15 3 9 7 14 9 12 3 -2 2 -12 -2 -21z m-674 -100 c0 -2 -7 -7
-16 -10 -8 -3 -12 -2 -9 4 6 10 25 14 25 6z m55 -6 c3 -5 1 -10 -4 -10 -6 0
-11 5 -11 10 0 6 2 10 4 10 3 0 8 -4 11 -10z m-235 -20 c0 -5 -5 -10 -11 -10
-5 0 -7 5 -4 10 3 6 8 10 11 10 2 0 4 -4 4 -10z m-230 -26 c0 -8 -5 -12 -10
-9 -6 4 -8 11 -5 16 9 14 15 11 15 -7z m2175 -154 c115 -53 134 -73 184 -190
24 -55 42 -102 40 -104 -2 -2 -57 -23 -121 -48 l-118 -46 -17 55 c-20 65 -63
108 -100 98 -13 -3 -70 -24 -128 -46 -108 -42 -145 -71 -145 -114 0 -12 59
-197 130 -411 72 -214 134 -400 138 -414 4 -13 19 -31 33 -39 23 -13 35 -11
129 18 111 34 183 70 200 101 12 23 3 68 -38 190 -17 51 -35 86 -44 88 -8 2
-48 -10 -89 -27 -44 -17 -78 -25 -85 -20 -6 4 -23 46 -39 91 -15 46 -34 90
-42 99 -14 17 -11 19 222 105 55 20 121 47 147 60 26 13 49 24 52 24 2 0 18
-42 34 -92 156 -480 196 -598 213 -626 23 -40 23 -42 4 -42 -9 0 -24 20 -36
48 -10 26 -23 55 -27 66 -7 15 -14 9 -43 -40 -20 -33 -42 -74 -49 -93 -25 -63
-80 -100 -205 -141 -38 -12 -119 -40 -179 -62 l-109 -40 -66 28 c-79 33 -167
89 -186 118 -8 12 -30 75 -49 141 -19 66 -88 273 -152 460 -141 410 -141 406
-72 545 64 131 102 173 181 199 34 12 112 41 172 65 128 52 141 52 260 -4z
m-822 -277 c9 -36 29 -93 44 -125 15 -34 22 -62 17 -67 -5 -4 -69 -30 -142
-56 -106 -39 -131 -52 -126 -64 13 -32 180 -513 276 -796 54 -159 110 -307
124 -328 14 -22 24 -40 22 -41 -2 -1 -52 -17 -113 -35 -60 -18 -125 -42 -142
-53 l-33 -20 0 44 c0 26 -26 121 -64 238 -104 317 -308 914 -315 922 -3 3 -64
-13 -136 -36 -202 -67 -176 -74 -218 55 -20 61 -34 115 -32 120 3 5 54 24 113
43 203 66 592 209 652 240 25 13 47 24 50 25 3 0 13 -29 23 -66z m-926 -321
c1 -31 38 -151 108 -352 59 -168 155 -447 215 -620 59 -173 119 -339 133 -369
15 -30 26 -55 24 -56 -1 -1 -33 -13 -72 -25 -38 -13 -95 -34 -125 -47 l-54
-24 -296 298 c-163 164 -315 320 -338 347 -23 27 -44 47 -46 45 -2 -2 18 -60
46 -129 27 -69 81 -226 119 -350 39 -124 84 -249 100 -279 16 -30 29 -58 29
-62 0 -4 -37 -17 -82 -29 -46 -12 -104 -30 -129 -40 l-47 -17 -42 136 c-74
241 -289 872 -367 1081 -32 83 -58 137 -81 162 l-33 36 56 17 c31 8 89 29 131
45 l75 28 75 -66 c66 -57 435 -442 593 -617 30 -33 50 -51 46 -40 -4 11 -33
97 -65 190 -143 420 -222 622 -256 653 -18 15 -21 24 -12 27 7 2 58 20 113 39
55 19 116 42 135 50 19 8 37 15 40 16 3 0 6 -21 7 -48z m4701 -19 c41 -53 52
-77 52 -113 0 -46 -16 -68 -56 -79 -76 -21 -154 37 -154 113 0 49 21 83 64
102 48 21 62 17 94 -23z m-354 -107 c29 -45 83 -190 101 -275 12 -52 28 -95
42 -112 28 -33 32 -99 7 -120 -14 -12 -22 -7 -60 36 -39 44 -44 54 -38 86 5
36 -25 123 -107 312 -24 54 -28 71 -18 83 18 22 55 17 73 -10z m-156 -230 c34
-101 62 -191 62 -199 0 -9 12 -46 27 -81 22 -54 24 -68 13 -81 -33 -40 -60 -9
-109 130 -20 59 -121 375 -121 381 0 4 52 33 60 34 3 0 33 -83 68 -184z m-260
-1 c29 -68 68 -177 207 -575 l22 -64 44 -3 c24 -2 55 -11 69 -21 32 -24 60
-78 60 -119 0 -42 -52 -103 -86 -103 -35 0 -121 46 -140 75 -18 27 -21 86 -6
125 7 20 4 36 -16 75 -14 28 -65 158 -114 290 -49 132 -102 273 -117 313 -26
65 -27 73 -12 82 37 22 54 7 89 -75z m-231 -80 c57 -139 313 -898 320 -945 5
-35 14 -52 43 -77 117 -101 80 -280 -58 -286 -78 -3 -163 100 -146 176 12 58
41 102 78 120 30 14 35 20 27 35 -5 9 -23 58 -39 107 -57 166 -190 548 -258
739 -66 182 -67 189 -49 202 33 25 49 11 82 -71z m-193 -138 c26 -72 69 -186
93 -252 25 -66 73 -205 108 -310 35 -104 73 -211 84 -237 22 -49 20 -78 -8
-78 -23 0 -97 138 -125 235 -25 85 -154 439 -231 631 -25 62 -45 115 -45 118
0 8 39 24 60 25 10 1 30 -40 64 -132z m-266 6 c11 -27 46 -120 77 -208 56
-161 206 -539 231 -585 11 -21 115 -286 175 -445 22 -61 24 -160 4 -209 -31
-73 -61 -30 -70 102 -6 78 -47 205 -130 397 -26 61 -60 146 -77 190 -45 122
-99 256 -118 295 -10 20 -51 130 -90 245 -40 116 -77 215 -82 222 -6 8 -1 16
19 27 15 8 31 15 34 16 4 0 16 -21 27 -47z m-161 -180 c111 -229 179 -399 249
-617 36 -111 78 -237 95 -281 16 -44 48 -132 71 -197 23 -65 52 -130 67 -146
58 -67 71 -84 71 -93 0 -6 5 -7 11 -3 6 3 15 0 20 -7 11 -19 -8 -29 -57 -29
-57 0 -74 23 -134 175 -28 72 -76 189 -105 260 -61 149 -122 332 -160 484 -14
57 -42 143 -62 190 -85 205 -100 239 -131 295 -17 33 -32 63 -32 67 0 4 -6 9
-12 12 -10 3 -10 7 1 20 7 10 19 17 25 17 7 0 44 -66 83 -147z m-214 16 c2 -8
5 -18 8 -24 4 -5 9 -23 13 -40 3 -16 18 -67 33 -113 23 -66 26 -86 16 -101
-11 -18 -9 -19 26 -14 72 10 151 -33 151 -83 0 -17 -8 -27 -27 -35 -23 -8 -30
-6 -50 16 -29 31 -50 32 -94 2 -33 -23 -34 -24 -31 -87 6 -121 64 -193 128
-159 42 22 52 54 27 87 -16 20 -29 27 -52 26 -25 -2 -32 3 -37 22 -4 14 -5 26
-3 28 2 2 34 7 70 10 54 6 69 4 82 -9 18 -18 37 -77 37 -115 0 -95 -132 -170
-219 -125 -61 31 -113 126 -126 232 -8 58 3 90 49 141 l36 39 -15 54 c-7 30
-23 81 -35 114 -21 61 -28 133 -15 155 8 13 25 1 28 -21z m-147 -61 c8 -34 9
-49 0 -58 -6 -6 -11 -15 -11 -20 0 -25 -21 -7 -36 32 -21 51 -24 84 -6 91 27
12 41 0 53 -45z m-145 -214 c60 -174 209 -622 300 -903 43 -134 90 -261 104
-282 14 -21 25 -42 25 -47 0 -5 -19 -17 -42 -27 -24 -9 -51 -21 -61 -27 -27
-14 -32 -3 -18 42 15 50 3 101 -69 297 -28 76 -115 325 -192 553 -77 228 -149
432 -159 452 -11 21 -22 58 -25 82 -6 41 -5 44 22 53 27 10 30 8 51 -32 12
-24 41 -96 64 -161z m-264 63 c12 -34 60 -172 108 -307 47 -135 106 -303 129
-375 24 -71 58 -166 76 -210 55 -135 131 -379 125 -401 -6 -26 -130 -144 -151
-144 -58 0 -128 87 -143 177 -6 36 -28 97 -55 150 -24 49 -60 134 -80 189 -19
54 -55 155 -81 224 -64 172 -205 566 -218 613 -10 34 -9 41 8 53 10 8 24 14
31 14 14 0 65 -126 142 -350 66 -190 115 -323 142 -385 12 -27 44 -115 71
-194 78 -223 127 -311 175 -311 13 0 35 -5 50 -10 15 -6 28 -9 30 -8 7 7 -38
144 -91 278 -51 129 -128 348 -230 655 -19 55 -57 160 -84 234 -28 73 -51 136
-51 140 0 5 37 21 70 29 3 1 15 -26 27 -61z m2816 -102 c19 -19 12 -47 -19
-76 -19 -18 -26 -20 -39 -9 -22 18 -18 59 8 81 27 23 32 23 50 4z m-3249 -47
c8 -24 37 -101 64 -173 27 -71 68 -193 91 -270 89 -294 134 -420 155 -435 49
-35 66 -62 66 -105 0 -43 -18 -69 -68 -94 -45 -23 -132 41 -132 98 0 14 10 45
22 67 l22 42 -32 83 c-17 46 -39 111 -48 144 -39 144 -133 415 -212 612 l-22
53 33 9 c17 5 35 10 39 10 3 1 13 -18 22 -41z m-222 -85 c9 -27 61 -180 115
-341 55 -161 97 -295 94 -297 -13 -7 -70 24 -84 47 -9 13 -43 109 -77 213 -34
105 -80 236 -101 293 -22 56 -39 106 -39 111 0 9 23 16 61 20 10 1 21 -15 31
-46z m-250 -91 c86 -247 108 -311 112 -333 4 -17 16 -31 36 -39 103 -43 87
-189 -22 -207 -33 -5 -41 -2 -73 30 -42 42 -47 90 -16 151 19 36 19 39 2 79
-10 23 -26 67 -36 97 -9 30 -32 89 -50 130 -51 117 -51 118 -13 129 18 5 35
10 38 10 3 0 12 -21 22 -47z m3488 -51 c42 -44 53 -80 40 -137 -16 -71 -87
-107 -150 -75 -56 28 -83 76 -78 138 7 76 43 111 117 112 27 1 42 -7 71 -38z
m-3744 -55 c38 -38 43 -70 19 -117 -31 -59 -123 -90 -160 -53 -44 45 -70 143
-43 161 23 15 103 41 127 42 14 1 37 -13 57 -33z m1942 -158 c11 -29 25 -69
32 -89 12 -32 18 -37 53 -42 46 -6 87 -33 104 -68 32 -66 55 -136 56 -176 2
-40 -2 -48 -37 -80 l-39 -36 32 -101 c17 -55 31 -111 31 -123 0 -18 7 -23 38
-28 147 -23 228 -179 153 -296 -76 -121 -248 -101 -312 36 -32 70 -18 142 43
217 l22 28 -28 97 c-42 145 -49 160 -85 168 -59 13 -141 136 -141 212 0 33 34
97 64 120 l25 20 -25 49 c-31 64 -43 144 -21 144 10 0 23 -20 35 -52z m-1276
-918 c73 -57 76 -185 6 -234 -74 -52 -198 32 -198 134 0 35 13 64 43 98 28 30
112 31 149 2z"/>
<path d="M4271 8986 c15 -15 31 -19 63 -17 23 1 17 10 -13 16 -69 16 -66 15
-50 1z"/>
<path d="M4118 8858 c-271 -263 -453 -648 -488 -1036 -15 -160 -3 -280 41
-419 31 -98 68 -159 152 -256 127 -147 292 -263 620 -434 122 -63 258 -140
303 -169 44 -30 83 -54 86 -54 7 0 32 59 73 174 19 55 80 190 134 300 142 287
211 488 227 667 14 146 -66 416 -189 639 -23 41 -43 80 -43 85 -1 6 -2 16 -3
23 0 6 -8 12 -17 12 -8 0 -12 5 -9 10 3 6 2 10 -3 10 -5 0 -38 37 -75 83 -123
154 -296 298 -436 364 -82 39 -235 93 -261 93 -9 0 -59 -42 -112 -92z m224
-57 c138 -36 243 -105 385 -255 75 -78 115 -132 170 -229 79 -139 88 -204 68
-473 -28 -379 -47 -520 -90 -703 -31 -128 -52 -177 -95 -219 -85 -82 -162 -65
-415 92 -285 177 -521 401 -613 581 -22 44 -25 62 -24 145 1 111 37 318 77
435 43 129 137 313 206 405 78 104 213 240 238 240 10 0 52 -9 93 -19z"/>
<path d="M4540 8495 c13 -14 26 -25 28 -25 3 0 -5 11 -18 25 -13 14 -26 25
-28 25 -3 0 5 -11 18 -25z"/>
<path d="M4442 8487 c-44 -46 -18 -160 69 -309 83 -142 177 -216 262 -205 23
2 54 9 68 15 25 10 26 12 25 100 -1 106 -9 119 -88 146 -52 19 -111 55 -136
86 -7 8 -35 47 -62 87 -48 69 -82 103 -105 103 -7 0 -21 -10 -33 -23z"/>
<path d="M4152 8415 c-21 -27 -24 -35 -42 -144 -21 -122 -46 -169 -132 -253
-72 -70 -78 -80 -78 -117 0 -78 46 -146 107 -157 71 -13 178 70 237 183 26 52
56 193 56 269 0 169 -87 297 -148 219z"/>
<path d="M4660 8335 c13 -14 26 -25 28 -25 3 0 -5 11 -18 25 -13 14 -26 25
-28 25 -3 0 5 -11 18 -25z"/>
<path d="M4770 8255 c80 -37 83 -39 108 -75 12 -18 22 -27 22 -21 0 19 -39 70
-63 83 -12 6 -35 14 -52 18 -16 4 -39 11 -50 14 -11 3 5 -5 35 -19z"/>
<path d="M4902 8120 c0 -14 2 -19 5 -12 2 6 2 18 0 25 -3 6 -5 1 -5 -13z"/>
<path d="M4573 7800 c21 -4 52 -20 69 -36 25 -24 29 -25 19 -7 -17 33 -52 53
-91 52 l-35 -1 38 -8z"/>
<path d="M4497 7765 c-77 -77 -56 -345 43 -551 43 -89 98 -147 133 -142 68 10
99 263 58 466 -20 95 -49 156 -103 217 -39 45 -92 49 -131 10z"/>
<path d="M4106 7552 c-8 -13 56 -23 69 -11 5 5 1 9 -12 9 -12 0 -28 3 -36 6
-8 3 -18 1 -21 -4z"/>
<path d="M4355 7190 c10 -11 20 -20 23 -20 3 0 -3 9 -13 20 -10 11 -20 20 -23
20 -3 0 3 -9 13 -20z"/>
<path d="M4400 7136 c0 -2 8 -10 18 -17 15 -13 16 -12 3 4 -13 16 -21 21 -21
13z"/>
<path d="M4780 8695 c0 -2 21 -24 47 -47 72 -66 129 -122 116 -114 -8 4 -13 1
-13 -8 0 -10 6 -13 15 -10 8 4 15 12 15 19 0 19 -40 65 -56 65 -9 0 -12 5 -8
12 4 6 3 8 -4 5 -5 -4 -29 13 -53 38 -38 40 -59 54 -59 40z"/>
<path d="M5860 6627 c0 -4 11 -29 24 -55 13 -26 34 -82 46 -124 15 -52 28 -78
38 -78 11 0 13 8 7 37 -10 53 -113 252 -115 220z"/>
<path d="M2810 8030 c-9 -6 -10 -10 -3 -10 6 0 15 5 18 10 8 12 4 12 -15 0z"/>
<path d="M2710 7980 c0 -5 7 -7 15 -4 8 4 15 8 15 10 0 2 -7 4 -15 4 -8 0 -15
-4 -15 -10z"/>
<path d="M1730 6326 c0 -8 4 -17 9 -20 5 -4 7 3 4 14 -6 23 -13 26 -13 6z"/>
<path d="M1820 6080 c0 -5 5 -10 11 -10 5 0 7 5 4 10 -3 6 -8 10 -11 10 -2 0
-4 -4 -4 -10z"/>
<path d="M2736 7458 c-21 -30 -20 -54 4 -78 22 -22 79 -27 98 -8 17 17 15 59
-4 86 -10 15 -25 22 -49 22 -24 0 -39 -7 -49 -22z"/>
<path d="M2400 7250 c-27 -27 -25 -55 6 -79 49 -39 104 -21 104 33 0 60 -67
89 -110 46z"/>
<path d="M3040 7035 c0 -8 44 -75 50 -75 3 0 12 5 20 10 12 9 9 15 -20 40 -33
28 -50 36 -50 25z"/>
<path d="M1996 7018 c-23 -32 -20 -61 9 -88 23 -22 25 -22 50 -6 40 26 51 58
30 90 -22 33 -67 35 -89 4z"/>
<path d="M7936 6832 c-3 -6 -1 -14 5 -17 14 -9 20 -2 10 14 -6 8 -11 9 -15 3z"/>
<path d="M8180 6798 c0 -6 -8 -17 -17 -25 -16 -13 -15 -14 10 -8 19 4 26 2 22
-5 -3 -5 -1 -10 4 -10 6 0 11 9 11 20 0 11 1 23 3 27 1 3 -6 7 -15 9 -10 1
-18 -3 -18 -8z"/>
<path d="M7830 6732 c0 -44 -4 -61 -19 -74 -25 -21 -65 -43 -58 -31 2 4 -4 17
-15 28 -19 20 -19 20 -9 -6 8 -23 6 -28 -15 -38 -31 -14 -67 -14 -59 -1 3 6 1
10 -4 10 -6 0 -11 -5 -11 -12 0 -23 -18 7 -23 37 -3 24 -4 22 -6 -12 -1 -52
-9 -73 -27 -73 -13 0 -19 45 -17 108 1 10 -6 12 -20 7 -12 -3 -26 -7 -32 -9
-34 -10 -42 -19 -37 -39 2 -12 8 -26 12 -32 4 -5 11 -35 14 -65 4 -30 13 -78
21 -105 l13 -50 1 41 c1 33 6 45 26 58 14 9 24 21 22 27 -1 7 4 14 12 17 9 3
11 0 6 -8 -5 -9 -4 -11 3 -6 7 4 12 18 12 31 0 23 19 46 21 26 2 -12 5 -26 9
-38 1 -5 2 -11 1 -15 -2 -16 16 -7 38 18 19 22 25 24 33 13 7 -11 11 -11 15
-1 2 6 9 12 15 12 17 0 120 50 147 71 13 11 32 19 42 19 9 0 20 6 22 13 3 6 6
-10 8 -38 1 -27 4 -39 6 -25 8 48 13 56 23 40 8 -13 10 -12 10 2 0 19 55 52
71 43 5 -4 7 -22 3 -42 -5 -26 -4 -34 5 -29 6 4 11 22 11 41 0 31 21 65 40 65
4 0 6 9 3 20 -4 13 -14 20 -30 20 -13 0 -22 4 -19 9 4 5 -3 7 -14 4 -16 -4
-19 -2 -14 12 5 12 0 11 -18 -7 -14 -12 -48 -39 -76 -58 -28 -19 -51 -40 -52
-47 0 -23 -41 -26 -63 -4 -12 12 -17 21 -12 21 6 0 9 24 7 55 -5 73 -22 71
-22 -3z m-275 -92 c8 -25 -3 -77 -17 -86 -6 -4 -14 0 -19 7 -10 16 -12 83 -2
92 13 13 32 7 38 -13z"/>
<path d="M7722 6700 c0 -14 2 -19 5 -12 2 6 2 18 0 25 -3 6 -5 1 -5 -13z"/>
<path d="M8111 6594 c-1 -42 -7 -69 -18 -85 -12 -15 -17 -39 -16 -64 2 -22 3
-48 4 -57 0 -10 6 -15 14 -12 7 3 11 13 8 23 -3 10 10 35 31 60 32 38 49 80
28 67 -7 -4 -16 18 -46 114 -2 8 -5 -13 -5 -46z"/>
<path d="M8052 6620 c0 -14 2 -19 5 -12 2 6 2 18 0 25 -3 6 -5 1 -5 -13z"/>
<path d="M7325 6590 c-3 -5 -1 -10 4 -10 6 0 11 5 11 10 0 6 -2 10 -4 10 -3 0
-8 -4 -11 -10z"/>
<path d="M7939 6550 c-7 -35 -4 -48 7 -38 3 4 4 21 2 40 l-3 33 -6 -35z"/>
<path d="M8037 6564 c-4 -4 -7 -14 -7 -23 0 -11 3 -12 11 -4 6 6 10 16 7 23
-2 6 -7 8 -11 4z"/>
<path d="M7412 6540 c0 -14 2 -19 5 -12 2 6 2 18 0 25 -3 6 -5 1 -5 -13z"/>
<path d="M7987 6553 c-4 -3 -7 -22 -7 -40 0 -19 -5 -43 -10 -54 -7 -13 -7 -19
0 -19 5 0 10 -13 10 -30 0 -16 5 -30 10 -30 6 0 10 8 10 17 0 15 2 14 15 -3
14 -18 14 -18 14 6 0 14 -6 53 -13 87 -7 34 -11 65 -8 68 3 3 1 5 -5 5 -5 0
-13 -3 -16 -7z"/>
<path d="M7810 6505 c-7 -20 -10 -39 -7 -42 3 -2 13 10 22 27 11 21 13 36 7
42 -6 6 -14 -3 -22 -27z"/>
<path d="M7627 6479 c4 -13 8 -18 11 -10 2 7 -1 18 -6 23 -8 8 -9 4 -5 -13z"/>
<path d="M7134 6455 c3 -8 1 -15 -5 -15 -6 0 -8 -4 -4 -9 7 -12 -34 -51 -52
-51 -8 0 -11 -5 -7 -11 4 -7 1 -10 -7 -7 -8 3 -16 20 -19 39 -4 24 -8 30 -14
20 -7 -11 -10 -11 -17 0 -6 9 -9 -6 -9 -40 0 -48 -2 -53 -20 -48 -11 3 -20 1
-20 -4 0 -5 4 -9 9 -9 18 0 41 -31 51 -71 13 -48 24 -44 22 7 -1 29 5 41 30
62 17 15 40 25 51 24 11 -2 16 1 13 6 -4 6 3 8 15 5 19 -5 20 -3 10 14 -5 11
-8 23 -5 26 9 8 -7 77 -18 77 -6 0 -8 -7 -4 -15z"/>
<path d="M7680 6459 c-11 -8 -12 -12 -2 -16 6 -2 12 -13 12 -24 0 -10 7 -19
15 -19 12 0 14 4 5 19 -7 13 -7 22 0 26 14 9 12 25 -2 25 -7 0 -20 -5 -28 -11z"/>
<path d="M6910 6429 c-11 -8 -12 -12 -3 -15 8 -4 9 -13 3 -29 -7 -17 -5 -25 6
-29 11 -4 14 4 14 39 0 25 -1 45 -2 45 -2 0 -10 -5 -18 -11z"/>
<path d="M7180 6421 c0 -5 5 -13 10 -16 6 -3 10 -2 10 4 0 5 -4 13 -10 16 -5
3 -10 2 -10 -4z"/>
<path d="M7640 6390 c0 -5 5 -10 11 -10 5 0 7 5 4 10 -3 6 -8 10 -11 10 -2 0
-4 -4 -4 -10z"/>
<path d="M7390 6375 c0 -8 4 -15 10 -15 5 0 7 7 4 15 -4 8 -8 15 -10 15 -2 0
-4 -7 -4 -15z"/>
<path d="M7547 6349 c4 -13 8 -18 11 -10 2 7 -1 18 -6 23 -8 8 -9 4 -5 -13z"/>
<path d="M7780 6362 c0 -5 -25 -7 -56 -4 -48 4 -57 2 -70 -17 -8 -11 -26 -21
-39 -21 -13 0 -28 -7 -33 -16 -9 -15 -22 -19 -77 -23 -18 -1 -20 -8 -20 -65 0
-56 2 -63 17 -55 12 7 15 18 11 51 -5 36 -4 41 11 35 10 -4 31 -7 47 -7 22 0
29 -5 29 -20 0 -28 31 -26 60 5 13 14 20 25 16 25 -11 0 17 25 36 33 20 7 35
-9 16 -16 -7 -3 -8 -6 -3 -6 6 -1 25 12 43 28 31 29 42 64 22 76 -5 3 -10 2
-10 -3z m-100 -37 c0 -8 -4 -15 -10 -15 -5 0 -7 7 -4 15 4 8 8 15 10 15 2 0 4
-7 4 -15z"/>
<path d="M8026 6346 c-7 -28 2 -58 15 -50 8 5 4 63 -5 72 -2 1 -6 -8 -10 -22z"/>
<path d="M6726 6351 c-3 -5 6 -8 19 -8 14 0 28 3 31 8 3 5 -6 9 -20 9 -14 0
-27 -4 -30 -9z"/>
<path d="M6890 6335 c0 -9 9 -15 21 -15 18 0 19 2 5 15 -8 8 -17 15 -20 15 -3
0 -6 -7 -6 -15z"/>
<path d="M6665 6331 c-10 -18 17 -23 33 -7 15 15 15 16 -5 16 -12 0 -24 -4
-28 -9z"/>
<path d="M6780 6323 c0 -13 5 -23 10 -23 13 0 13 11 0 30 -8 12 -10 11 -10 -7z"/>
<path d="M7870 6330 c0 -5 5 -10 10 -10 6 0 10 5 10 10 0 6 -4 10 -10 10 -5 0
-10 -4 -10 -10z"/>
<path d="M8145 6330 c-3 -5 -1 -10 4 -10 6 0 11 5 11 10 0 6 -2 10 -4 10 -3 0
-8 -4 -11 -10z"/>
<path d="M7216 6311 c-3 -5 1 -11 9 -15 8 -3 15 -1 15 4 0 13 -18 22 -24 11z"/>
<path d="M8080 6304 c0 -8 5 -12 10 -9 6 3 10 10 10 16 0 5 -4 9 -10 9 -5 0
-10 -7 -10 -16z"/>
<path d="M6946 6285 c-16 -12 -19 -26 -18 -87 1 -40 -3 -89 -9 -108 -11 -40
-51 -120 -59 -120 -13 0 7 177 21 186 5 3 9 10 9 16 0 7 -5 6 -15 -2 -35 -29
-47 21 -13 57 25 27 9 30 -30 6 -15 -9 -28 -17 -29 -18 -1 0 4 -19 12 -40 18
-52 19 -109 0 -144 -20 -39 -50 -45 -70 -15 -22 34 -35 30 -35 -11 0 -24 -6
-37 -21 -45 -23 -13 -49 2 -49 28 0 8 -9 30 -21 48 -11 19 -18 38 -15 43 4 5
2 12 -3 16 -12 7 18 45 36 45 6 0 14 4 17 9 3 4 -2 8 -12 8 -63 0 -64 1 -62
46 3 64 1 77 -10 77 -5 0 -10 -22 -10 -50 0 -27 -4 -50 -10 -50 -5 0 -10 5
-10 10 0 6 -4 10 -10 10 -5 0 -10 -10 -10 -22 0 -13 -4 -29 -9 -37 -12 -18
-46 1 -66 37 l-15 27 1 -30 c2 -56 1 -57 -36 -53 -24 3 -35 0 -35 -9 0 -16
-12 -17 -29 0 -10 10 -12 8 -9 -8 2 -16 13 -21 53 -26 34 -3 45 -7 33 -13 -9
-4 -19 -15 -23 -24 -5 -14 -4 -14 13 1 10 9 30 16 43 15 14 -1 41 10 62 26 48
37 68 32 72 -19 3 -40 9 -69 20 -105 4 -13 -2 -26 -20 -42 -14 -12 -23 -28
-21 -34 3 -7 0 -15 -7 -17 -14 -5 84 0 130 6 17 3 42 12 55 21 12 9 30 16 39
16 10 0 19 5 21 11 2 6 14 8 30 4 24 -6 26 -10 22 -43 -4 -31 -2 -28 14 18 10
30 37 92 60 138 23 46 39 88 36 93 -3 6 -1 15 5 22 7 9 5 27 -6 61 -16 48 -16
49 8 67 13 10 20 19 14 18 -5 0 -19 -6 -29 -14z m-359 -401 c-3 -3 -12 -4 -19
-1 -8 3 -5 6 6 6 11 1 17 -2 13 -5z"/>
<path d="M8144 6278 c3 -13 6 -40 6 -60 0 -21 5 -38 10 -38 6 0 10 13 10 29 0
44 -11 91 -22 91 -6 0 -8 -10 -4 -22z"/>
<path d="M7980 6275 c0 -8 5 -15 10 -15 6 0 10 7 10 15 0 8 -4 15 -10 15 -5 0
-10 -7 -10 -15z"/>
<path d="M7086 6271 c-4 -5 -3 -17 1 -26 4 -12 -2 -24 -18 -36 -13 -10 -19
-19 -12 -19 24 0 43 13 43 31 0 10 6 19 13 19 8 0 7 4 -3 10 -10 6 -11 10 -2
10 6 0 12 5 12 10 0 12 -27 13 -34 1z"/>
<path d="M7235 6259 c-4 -6 -5 -13 -2 -16 7 -7 27 6 27 18 0 12 -17 12 -25 -2z"/>
<path d="M7416 6253 c-6 -14 -5 -15 5 -6 7 7 10 15 7 18 -3 3 -9 -2 -12 -12z"/>
<path d="M7921 6253 c2 -19 38 -86 38 -72 1 24 -20 79 -30 79 -5 0 -9 -3 -8
-7z"/>
<path d="M6986 6225 c8 -37 14 -45 14 -19 0 10 -5 26 -10 34 -8 11 -9 7 -4
-15z"/>
<path d="M7995 6220 c-3 -5 1 -10 9 -10 9 0 16 5 16 10 0 6 -4 10 -9 10 -6 0
-13 -4 -16 -10z"/>
<path d="M7883 6206 c4 -10 7 -33 7 -52 0 -19 5 -34 11 -34 16 0 7 93 -10 98
-10 3 -12 0 -8 -12z"/>
<path d="M6314 6185 c-10 -8 -14 -14 -9 -14 6 0 19 6 29 14 11 8 15 15 10 15
-6 0 -19 -7 -30 -15z"/>
<path d="M6760 6186 c0 -8 -10 -17 -22 -19 -22 -4 -22 -4 -2 -6 25 -1 51 24
34 34 -5 3 -10 -1 -10 -9z"/>
<path d="M7002 6160 c0 -14 2 -19 5 -12 2 6 2 18 0 25 -3 6 -5 1 -5 -13z"/>
<path d="M7274 6125 c-2 -23 1 -25 46 -25 78 0 74 31 -5 43 -37 6 -40 5 -41
-18z"/>
<path d="M7230 6136 c0 -2 7 -7 16 -10 8 -3 12 -2 9 4 -6 10 -25 14 -25 6z"/>
<path d="M7400 6124 c0 -8 5 -12 10 -9 6 4 8 11 5 16 -9 14 -15 11 -15 -7z"/>
<path d="M6766 6108 c-3 -13 -6 -32 -6 -42 0 -29 17 -7 25 32 7 36 -9 45 -19
10z"/>
<path d="M6240 6089 c0 -37 -24 -69 -51 -69 -9 0 -10 -3 -4 -8 20 -14 5 -80
-15 -67 -5 3 -7 17 -4 30 3 17 0 25 -10 25 -16 0 -26 21 -26 56 0 13 -5 24
-11 24 -6 0 -8 -15 -4 -43 6 -40 5 -44 -20 -55 -40 -18 -53 -15 -57 16 -3 26
-4 26 -26 -15 -12 -23 -31 -47 -41 -52 -13 -8 -20 -24 -23 -56 -3 -48 2 -55
22 -30 7 8 23 15 35 15 19 0 23 -7 29 -52 11 -99 10 -102 -40 -126 -32 -16
-44 -27 -42 -40 2 -10 12 -16 23 -15 11 1 48 4 83 7 62 5 126 36 102 51 -5 3
-10 15 -10 26 0 23 -7 23 -53 4 -20 -8 -38 -11 -40 -7 -3 4 -8 41 -12 84 -6
71 -5 77 14 83 12 3 25 3 31 0 6 -3 13 1 16 9 3 9 12 16 20 16 8 0 14 4 14 10
0 5 11 12 24 16 14 3 27 12 30 21 4 9 13 12 25 8 14 -4 23 0 31 15 6 11 8 20
4 20 -3 0 -1 7 6 15 7 8 9 15 4 15 -5 0 2 9 15 19 22 17 22 49 0 36 -5 -4 -9
-2 -9 2 0 5 -7 18 -15 29 -13 18 -14 17 -15 -17z"/>
<path d="M7647 6114 c-4 -4 -7 -14 -7 -23 0 -11 3 -12 11 -4 6 6 10 16 7 23
-2 6 -7 8 -11 4z"/>
<path d="M6100 6100 c0 -5 4 -10 9 -10 6 0 13 5 16 10 3 6 -1 10 -9 10 -9 0
-16 -4 -16 -10z"/>
<path d="M7028 6075 c-59 -40 -119 -142 -134 -227 -5 -33 -4 -38 12 -38 33 0
43 14 50 69 12 91 86 156 170 149 38 -3 46 -11 90 -84 10 -17 13 -17 29 -4 26
21 14 89 -20 116 -60 48 -143 56 -197 19z"/>
<path d="M5938 6038 c-16 -5 -28 -17 -28 -25 0 -14 3 -13 20 2 18 17 20 17 14
2 -5 -13 -2 -16 10 -11 9 3 16 15 16 25 0 10 -1 19 -2 18 -2 0 -15 -5 -30 -11z"/>
<path d="M6450 6026 c0 -9 5 -16 10 -16 6 0 10 4 10 9 0 6 -4 13 -10 16 -5 3
-10 -1 -10 -9z"/>
<path d="M6268 5993 c7 -3 16 -2 19 1 4 3 -2 6 -13 5 -11 0 -14 -3 -6 -6z"/>
<path d="M6400 5976 c0 -8 5 -18 10 -21 6 -3 10 3 10 14 0 12 -4 21 -10 21 -5
0 -10 -6 -10 -14z"/>
<path d="M6460 5970 c0 -19 3 -21 12 -12 9 9 9 15 0 24 -9 9 -12 7 -12 -12z"/>
<path d="M8016 5943 c-6 -14 -5 -15 5 -6 7 7 10 15 7 18 -3 3 -9 -2 -12 -12z"/>
<path d="M8086 5942 c-7 -12 4 -52 15 -52 5 0 6 12 3 28 -8 33 -10 36 -18 24z"/>
<path d="M5908 5912 c-1 -18 -2 -44 -3 -60 -1 -15 -5 -101 -9 -192 -6 -151 -5
-162 8 -126 8 22 22 44 31 48 8 5 12 14 8 20 -16 27 -25 264 -11 292 7 13 6
23 -6 34 -15 15 -16 14 -18 -16z"/>
<path d="M6472 5920 c0 -14 2 -19 5 -12 2 6 2 18 0 25 -3 6 -5 1 -5 -13z"/>
<path d="M7392 5920 c0 -14 2 -19 5 -12 2 6 2 18 0 25 -3 6 -5 1 -5 -13z"/>
<path d="M6240 5926 c5 -28 29 -86 31 -73 1 9 2 21 3 27 0 5 7 15 14 22 19 19
15 25 -18 25 -16 0 -30 -1 -30 -1z"/>
<path d="M7259 5890 c-37 -15 -101 -38 -143 -49 -41 -11 -115 -38 -163 -60
-49 -21 -96 -41 -105 -44 -21 -7 -22 -31 -8 -184 10 -111 32 -171 75 -199 13
-8 53 -21 89 -27 57 -10 69 -9 107 9 24 10 72 48 109 84 96 95 113 142 118
334 2 81 0 152 -5 156 -4 5 -38 -4 -74 -20z m-122 -152 c29 -27 29 -40 -2 -85
l-24 -37 24 -32 c32 -42 31 -50 -2 -58 -16 -4 -42 -14 -60 -23 -18 -10 -34
-15 -37 -12 -2 2 1 23 7 47 11 40 10 43 -22 76 -37 38 -36 57 6 114 29 39 74
44 110 10z"/>
<path d="M7940 5900 c0 -11 5 -20 10 -20 6 0 10 9 10 20 0 11 -4 20 -10 20 -5
0 -10 -9 -10 -20z"/>
<path d="M6147 5878 c-6 -17 0 -105 8 -118 3 -5 14 -6 25 -3 16 4 18 8 9 20
-7 7 -17 37 -24 65 -7 33 -14 46 -18 36z"/>
<path d="M6200 5849 c0 -30 3 -40 10 -33 16 16 17 66 3 71 -9 3 -13 -8 -13
-38z"/>
<path d="M6827 5821 c-4 -17 -3 -21 5 -13 5 5 8 16 6 23 -3 8 -7 3 -11 -10z"/>
<path d="M7610 5790 c0 -5 7 -10 15 -10 8 0 15 5 15 10 0 6 -7 10 -15 10 -8 0
-15 -4 -15 -10z"/>
<path d="M6741 5763 c-1 -7 5 -30 13 -50 8 -21 17 -47 19 -58 3 -11 5 1 6 27
1 30 -4 50 -13 55 -7 4 -16 15 -19 23 -3 9 -6 10 -6 3z"/>
<path d="M6624 5720 c3 -14 13 -58 23 -98 l17 -74 -24 -19 c-36 -27 -66 -24
-79 9 l-11 27 4 -31 c6 -35 -9 -61 -38 -66 -25 -4 -32 -25 -11 -30 14 -3 14
-6 -4 -25 -12 -12 -21 -27 -21 -33 0 -6 -4 -8 -10 -5 -5 3 -10 17 -10 31 0 18
-5 24 -23 24 -13 0 -28 -5 -34 -11 -10 -10 -66 -2 -59 10 2 3 0 15 -5 26 -6
16 -8 12 -8 -16 -1 -41 -24 -74 -58 -84 -19 -5 -25 -1 -35 22 l-12 28 -4 -32
c-2 -18 -7 -33 -11 -33 -12 0 -20 -49 -9 -56 5 -3 14 -18 19 -32 8 -21 12 -23
19 -12 5 8 13 15 17 15 4 1 19 7 33 15 26 15 31 16 66 18 12 1 33 14 47 28 14
14 30 23 36 20 5 -4 12 -2 16 4 8 12 80 46 120 56 29 7 83 40 96 58 4 4 16 5
28 1 12 -4 21 -2 21 4 0 6 11 11 24 11 23 0 36 16 36 46 0 9 -5 12 -10 9 -22
-13 -50 6 -50 34 0 15 -7 36 -16 47 -15 19 -16 19 -9 -1 l6 -20 -18 20 c-21
22 -32 47 -39 84 -3 14 -10 32 -15 40 -8 13 -9 10 -5 -9z m68 -202 c-6 -6 -7
0 -4 19 5 21 7 23 10 9 2 -10 0 -22 -6 -28z"/>
<path d="M7451 5705 c-1 -11 -4 -31 -8 -45 -6 -23 -5 -24 10 -9 12 13 14 24 7
45 -6 21 -9 23 -9 9z"/>
<path d="M6602 5660 c0 -14 2 -19 5 -12 2 6 2 18 0 25 -3 6 -5 1 -5 -13z"/>
<path d="M6600 5600 c0 -18 4 -29 10 -25 6 3 10 15 10 25 0 10 -4 22 -10 25
-6 4 -10 -7 -10 -25z"/>
<path d="M7386 5586 c-3 -13 -9 -32 -13 -43 -6 -17 -6 -17 10 -1 9 9 17 22 17
28 0 6 5 8 10 5 15 -9 12 4 -4 20 -12 12 -15 11 -20 -9z"/>
<path d="M7430 5575 c0 -8 4 -15 10 -15 5 0 7 7 4 15 -4 8 -8 15 -10 15 -2 0
-4 -7 -4 -15z"/>
<path d="M7551 5471 c-1 -27 2 -32 11 -23 8 8 8 17 0 34 -10 22 -11 21 -11
-11z"/>
<path d="M7322 5418 c-18 -18 -15 -28 8 -28 13 0 20 7 20 20 0 23 -10 26 -28
8z"/>
<path d="M7280 5380 c-8 -5 -12 -12 -9 -15 4 -3 12 1 19 10 14 17 11 19 -10 5z"/>
<path d="M6618 5373 c-19 -5 -25 -33 -8 -33 5 0 7 -8 3 -17 -5 -15 -3 -16 7
-6 11 10 11 15 -1 29 -13 16 -12 17 9 12 15 -4 22 -2 22 8 0 14 -3 15 -32 7z"/>
<path d="M6135 5326 c-8 -31 -16 -42 -40 -49 -16 -5 -36 -14 -42 -19 -19 -16
2 -46 45 -64 36 -15 38 -15 59 11 12 14 20 32 16 41 -3 8 -8 12 -11 10 -6 -7
-32 13 -32 24 0 4 11 6 25 5 14 -2 23 1 19 6 -3 5 -9 7 -14 4 -5 -3 -10 12
-12 32 l-3 38 -10 -39z"/>
<path d="M6551 5343 c0 -4 4 -17 9 -28 8 -19 9 -19 9 2 1 12 -3 25 -9 28 -5 3
-10 3 -9 -2z"/>
<path d="M6884 5292 c3 -5 18 -15 34 -21 21 -9 28 -19 30 -43 3 -38 5 -40 26
-32 9 3 13 11 10 16 -4 6 -10 5 -16 -3 -8 -11 -9 -10 -4 4 9 28 -4 46 -46 68
-22 11 -37 16 -34 11z"/>
<path d="M6485 5240 c-3 -5 -1 -10 4 -10 6 0 11 5 11 10 0 6 -2 10 -4 10 -3 0
-8 -4 -11 -10z"/>
<path d="M5958 5025 c-6 -30 -3 -43 8 -33 3 4 4 19 2 35 l-3 28 -7 -30z"/>
<path d="M8101 5743 c1 -10 5 -31 9 -48 7 -27 8 -25 9 18 0 26 -3 47 -9 47 -5
0 -9 -8 -9 -17z"/>
<path d="M7976 5694 c-9 -22 -8 -24 9 -24 8 0 15 9 15 20 0 24 -15 27 -24 4z"/>
<path d="M7566 5283 c-9 -10 -7 -123 3 -123 10 0 21 48 21 91 0 28 -12 44 -24
32z"/>
<path d="M7406 5211 c-10 -11 -16 -30 -14 -43 l4 -23 12 26 c6 15 17 29 24 32
9 3 10 8 2 16 -8 9 -15 7 -28 -8z"/>
<path d="M6014 4295 c-18 -14 -18 -14 4 -8 12 3 22 9 22 14 0 12 -3 11 -26 -6z"/>
<path d="M6676 5127 c-22 -22 -35 -57 -22 -57 8 0 58 72 53 77 -3 3 -17 -6
-31 -20z"/>
<path d="M7046 5034 c-9 -24 -7 -34 8 -34 13 0 26 20 26 41 0 15 -27 10 -34
-7z"/>
<path d="M6920 5003 c0 -11 9 -37 20 -59 19 -39 19 -39 19 -9 -1 43 -13 78
-27 83 -7 2 -12 -5 -12 -15z"/>
<path d="M6994 5005 c-8 -21 4 -67 16 -60 13 8 13 42 0 50 -6 4 -8 11 -5 16 4
5 4 9 0 9 -3 0 -8 -7 -11 -15z"/>
<path d="M6827 4958 c-3 -8 -2 -21 3 -27 11 -19 23 5 12 25 -8 14 -10 14 -15
2z"/>
<path d="M6896 4940 c7 -38 11 -46 20 -38 3 3 -2 21 -10 39 l-16 34 6 -35z"/>
<path d="M7045 4940 c-3 -5 3 -10 14 -10 12 0 21 5 21 10 0 6 -6 10 -14 10 -8
0 -18 -4 -21 -10z"/>
<path d="M6440 5039 c0 -5 5 -7 10 -4 6 3 10 8 10 11 0 2 -4 4 -10 4 -5 0 -10
-5 -10 -11z"/>
<path d="M6328 5004 c-2 -5 3 -25 13 -44 17 -33 18 -34 19 -9 0 27 -24 68 -32
53z"/>
<path d="M6230 4941 c0 -5 5 -13 10 -16 6 -3 10 -2 10 4 0 5 -4 13 -10 16 -5
3 -10 2 -10 -4z"/>
<path d="M6026 4823 c8 -32 24 -55 24 -32 0 26 -12 59 -21 59 -5 0 -6 -12 -3
-27z"/>
<path d="M3589 4363 c-13 -16 -12 -17 4 -4 16 13 21 21 13 21 -2 0 -10 -8 -17
-17z"/>
<path d="M3545 4100 c-3 -5 -1 -10 4 -10 6 0 11 5 11 10 0 6 -2 10 -4 10 -3 0
-8 -4 -11 -10z"/>
<path d="M3193 3995 c0 -8 4 -12 9 -9 5 3 6 10 3 15 -9 13 -12 11 -12 -6z"/>
<path d="M5155 4414 c-44 -20 -117 -53 -162 -73 -45 -20 -94 -46 -110 -59
l-28 -22 35 6 c61 11 182 63 209 88 14 14 56 39 94 56 37 16 67 32 67 35 0 12
-30 3 -105 -31z"/>
<path d="M5965 4550 c3 -5 8 -10 11 -10 2 0 4 5 4 10 0 6 -5 10 -11 10 -5 0
-7 -4 -4 -10z"/>
<path d="M6945 4241 c-120 -44 -121 -45 -139 -79 -18 -35 1 -109 85 -341 34
-91 86 -238 116 -326 63 -186 73 -205 110 -205 46 0 232 62 258 86 35 32 32
63 -20 211 -25 70 -86 247 -135 393 -92 271 -107 301 -154 299 -11 0 -66 -17
-121 -38z"/>
<path d="M5398 4098 c5 -5 16 -8 23 -6 8 3 3 7 -10 11 -17 4 -21 3 -13 -5z"/>
<path d="M7683 2125 c-45 -32 -25 -95 30 -95 45 0 64 52 30 82 -31 26 -39 28
-60 13z"/>
<path d="M7452 1660 c-29 -18 -33 -25 -30 -57 6 -70 87 -94 124 -37 18 27 12
52 -21 88 -29 31 -31 31 -73 6z"/>
<path d="M5627 1133 c-4 -3 -7 -15 -7 -25 0 -14 6 -19 23 -16 29 4 38 48 9 48
-10 0 -22 -3 -25 -7z"/>
<path d="M4997 1464 c-14 -15 -6 -34 14 -34 14 0 19 5 17 17 -3 18 -20 27 -31
17z"/>
<path d="M8285 1842 c-31 -7 -45 -22 -45 -52 0 -27 23 -56 50 -61 28 -6 69 11
81 32 20 39 -36 92 -86 81z"/>
<path d="M6613 1445 c-38 -16 -42 -38 -18 -106 17 -48 51 -89 72 -89 8 0 27 7
43 15 32 16 38 41 19 76 -7 15 -7 24 2 35 7 8 7 14 1 14 -5 0 -19 16 -31 35
-22 38 -38 42 -88 20z"/>
<path d="M6790 785 c-31 -33 -23 -87 19 -129 53 -53 141 -30 141 36 0 33 -25
87 -49 105 -28 22 -85 16 -111 -12z"/>
<path d="M5196 675 c-24 -25 -28 -52 -11 -79 22 -34 48 -40 85 -21 36 19 40
50 9 89 -23 29 -59 34 -83 11z"/>
<path d="M10090 9663 c-30 -2 -93 -10 -139 -19 -47 -9 -112 -17 -145 -19 -101
-4 -157 -15 -246 -47 -47 -17 -89 -34 -95 -38 -22 -16 -182 -98 -205 -105 -24
-7 -96 -39 -207 -91 -28 -13 -54 -24 -57 -24 -2 0 -37 -15 -78 -34 -40 -18
-125 -50 -188 -71 -165 -54 -170 -56 -170 -74 0 -9 15 -52 33 -96 l33 -80 42
0 c24 0 46 -5 50 -12 10 -17 59 -27 67 -14 3 6 10 9 15 6 4 -3 14 3 21 12 12
14 12 16 0 8 -9 -5 -12 -4 -7 3 4 6 29 14 56 18 28 4 50 10 50 15 0 5 9 9 20
9 13 0 20 7 20 20 0 30 27 36 49 11 29 -34 48 -27 56 22 4 23 12 48 17 55 6 6
7 12 3 12 -4 0 -2 7 5 15 17 21 54 19 103 -7 74 -38 142 -22 161 38 11 35 62
57 116 50 48 -6 84 0 75 14 -7 12 64 20 90 10 13 -5 26 -18 30 -29 8 -27 22
-27 31 2 12 36 13 47 2 47 -6 0 -7 8 -3 18 4 9 9 28 10 40 4 31 33 62 57 62
26 0 64 -44 72 -82 10 -49 32 -77 56 -71 11 3 23 9 25 14 6 9 -15 101 -25 109
-3 3 -2 23 2 46 6 30 16 44 34 53 34 15 59 14 74 -4 7 -8 16 -12 21 -9 5 3 9
0 9 -5 0 -15 50 -14 50 2 1 6 14 27 30 46 30 35 62 43 108 28 21 -8 22 -6 22
57 0 35 -3 71 -6 80 -6 16 -12 17 -144 9z"/>
<path d="M7178 9235 c-83 -80 -111 -100 -206 -146 l-111 -54 38 -90 c80 -190
156 -325 250 -445 72 -91 131 -143 246 -215 76 -47 225 -106 265 -104 25 1
118 120 159 204 77 157 103 315 82 489 -10 77 -64 313 -97 424 -7 23 -23 28
-40 13 -16 -15 -112 -31 -190 -31 -41 0 -118 9 -172 20 -53 11 -104 22 -112
24 -9 2 -58 -37 -112 -89z m199 -12 c50 -13 107 -17 220 -16 l151 2 22 -79
c26 -100 48 -223 56 -320 12 -146 -34 -329 -116 -454 -42 -65 -54 -76 -78 -76
-88 0 -287 112 -377 212 -60 67 -164 217 -200 287 -59 117 -93 210 -81 219 6
5 41 25 79 46 75 41 212 148 227 177 13 23 12 23 97 2z"/>
<path d="M7258 9138 c-52 -51 -124 -104 -222 -163 -15 -9 -15 -14 5 -65 102
-269 311 -496 524 -571 l58 -20 23 28 c42 51 104 181 124 259 11 43 20 110 20
150 0 80 -32 280 -57 361 l-17 53 -86 -7 c-82 -5 -238 9 -287 28 -18 6 -32 -2
-85 -53z m238 -224 c57 -27 81 -96 49 -141 -14 -19 -11 -26 27 -93 33 -56 39
-73 28 -80 -17 -10 -139 -34 -145 -28 -3 2 -8 35 -12 73 -8 65 -10 69 -43 87
-46 26 -60 45 -60 85 0 92 72 137 156 97z"/>
<path d="M10180 9120 c-9 -4 -60 -15 -115 -23 -55 -9 -113 -21 -130 -27 -35
-13 -146 -40 -192 -46 -51 -7 -163 -34 -228 -56 -33 -11 -102 -31 -154 -44
-53 -14 -100 -29 -106 -33 -5 -4 -37 -15 -70 -25 -33 -9 -73 -21 -90 -27 -97
-34 -209 -70 -267 -86 -37 -10 -77 -25 -89 -33 l-21 -16 32 -83 c18 -45 37
-84 43 -86 7 -2 33 -8 59 -15 l46 -12 4 -67 c3 -50 0 -74 -14 -99 -10 -18 -18
-42 -18 -53 0 -30 57 -149 72 -150 32 -3 74 3 83 12 5 5 30 9 55 9 60 0 80
-19 115 -112 16 -40 43 -106 62 -146 45 -98 52 -158 23 -195 -17 -22 -29 -27
-56 -25 -19 1 -34 5 -34 8 0 3 -9 11 -21 18 -16 11 -24 11 -36 1 -12 -10 -16
-10 -24 2 -7 12 -9 12 -10 -1 -3 -35 5 -68 37 -159 58 -162 63 -171 96 -171
65 0 97 -80 61 -154 -16 -34 -15 -37 11 -98 53 -125 70 -153 103 -167 40 -18
50 -55 29 -105 -15 -36 -14 -40 25 -144 22 -59 43 -113 48 -120 7 -12 21 -10
77 6 100 29 215 73 327 125 53 25 97 43 97 40 0 -3 7 0 15 7 8 7 15 9 15 5 0
-4 6 -3 13 2 12 10 74 26 150 38 l37 6 -1 162 c0 89 -3 156 -6 150 -2 -7 -13
-13 -22 -13 -10 0 -33 -16 -52 -35 -43 -44 -84 -47 -122 -7 -14 15 -62 103
-106 196 -82 171 -94 213 -70 259 44 85 201 143 279 104 28 -14 59 -82 43 -98
-6 -6 -41 -17 -79 -24 -118 -25 -127 -60 -53 -212 44 -92 76 -123 125 -123 69
0 64 -27 64 391 l0 379 -24 6 c-56 14 -113 112 -162 280 -9 32 -28 76 -41 98
-42 65 -16 125 69 161 48 19 112 20 128 0 7 -8 16 -15 21 -15 5 0 9 54 9 121
0 114 -1 120 -19 114 -11 -3 -36 1 -56 10 -52 21 -64 19 -94 -14 -31 -34 -101
-71 -133 -71 -13 0 -34 7 -47 16 -29 21 -91 117 -91 142 0 36 21 77 53 102 28
22 41 25 124 26 77 0 96 4 114 20 15 13 37 19 72 20 29 0 58 1 65 2 8 1 12 26
12 82 0 76 -1 80 -22 80 -13 0 -30 -5 -38 -10z m-432 -304 c16 -16 23 -94 10
-118 -5 -12 -5 -18 2 -18 18 0 10 -35 -13 -51 -28 -20 -84 -31 -92 -19 -3 6
-19 10 -35 10 -21 0 -31 -6 -36 -22 -4 -13 -12 -26 -18 -30 -22 -15 -61 -8
-74 12 -21 34 -39 24 -39 -21 0 -49 -27 -76 -74 -74 -31 1 -74 39 -64 55 3 6
1 10 -5 10 -6 0 -8 5 -5 10 3 6 -1 10 -9 10 -12 0 -14 -12 -13 -57 l2 -58 -37
-9 c-33 -8 -41 -7 -62 13 -13 12 -32 40 -42 61 -10 22 -22 40 -26 40 -16 0 -7
55 14 86 17 25 33 35 63 40 22 3 53 15 68 26 33 24 101 35 111 19 11 -17 22
-13 58 19 18 17 51 35 73 41 22 6 52 14 68 19 19 6 27 5 28 -3 0 -8 2 -8 6 1
2 6 16 12 29 12 13 0 24 4 24 9 0 14 73 3 88 -13z m-712 -243 c45 -52 49 -118
9 -168 -20 -25 -43 -12 -68 38 -9 21 -24 37 -32 37 -25 0 -19 68 8 96 29 31
54 30 83 -3z m861 -190 c36 -24 29 -74 -12 -87 -52 -15 -77 -30 -93 -54 -30
-46 18 -180 70 -195 16 -5 47 12 76 40 21 20 51 15 79 -13 22 -22 25 -32 20
-77 -3 -39 -11 -56 -30 -73 -29 -25 -126 -49 -156 -39 -31 10 -126 110 -143
151 -68 164 -81 230 -54 281 40 79 170 114 243 66z m-372 -98 c37 -36 33 -73
-9 -90 -18 -8 -36 -20 -39 -28 -8 -21 36 -146 77 -220 47 -84 53 -139 17 -168
-30 -24 -33 -24 -70 7 -21 18 -36 43 -47 82 -24 88 -76 215 -98 240 -12 14
-31 22 -51 22 -37 0 -85 33 -85 58 1 40 38 64 125 82 33 6 78 18 100 25 53 19
52 19 80 -10z m193 -825 c54 -39 60 -49 127 -219 47 -118 56 -150 52 -184 -11
-83 -88 -140 -196 -143 -126 -5 -175 49 -243 265 -23 73 -29 105 -24 140 12
90 57 142 139 161 66 16 103 11 145 -20z"/>
<path d="M9600 8650 c0 -5 5 -10 10 -10 6 0 10 5 10 10 0 6 -4 10 -10 10 -5 0
-10 -4 -10 -10z"/>
<path d="M9585 7315 c-33 -32 -32 -67 3 -152 41 -101 49 -111 86 -118 80 -15
101 40 60 156 -27 74 -50 118 -69 131 -20 15 -56 7 -80 -17z"/>
<path d="M10214 8396 c-39 -21 -54 -38 -54 -59 0 -17 36 -119 70 -202 5 -12 9
38 9 128 1 81 0 147 -1 146 -2 -1 -13 -6 -24 -13z"/>
<path d="M6132 8384 c-28 -19 -28 -44 -1 -78 25 -31 57 -33 87 -6 27 26 28 54
2 80 -24 24 -57 26 -88 4z"/>
<path d="M5400 8355 c-20 -25 -3 -64 36 -83 34 -16 36 -16 50 2 14 20 10 60
-9 84 -13 17 -62 15 -77 -3z"/>
<path d="M5763 8305 c-29 -20 -30 -65 -4 -89 25 -23 49 -18 75 17 19 26 19 30
5 55 -18 32 -46 38 -76 17z"/>
<path d="M8415 8022 c-55 -21 -71 -32 -73 -50 -3 -20 -1 -21 22 -11 36 17 52
6 71 -48 34 -91 54 -133 64 -133 18 0 13 42 -14 120 -14 40 -25 77 -25 81 0 4
14 10 30 14 34 7 34 9 20 36 -13 24 -10 24 -95 -9z"/>
<path d="M8258 7973 c-31 -5 -58 -37 -58 -68 0 -12 12 -32 26 -46 20 -19 35
-24 69 -22 37 1 45 -2 51 -19 9 -28 -12 -40 -63 -35 -48 5 -54 -4 -21 -27 52
-37 128 -2 128 59 0 44 -29 65 -91 65 -34 0 -49 4 -53 16 -10 26 13 46 45 39
34 -8 49 13 24 32 -11 7 -21 12 -24 12 -3 -1 -18 -4 -33 -6z"/>
<path d="M8062 7904 c-17 -12 -22 -25 -22 -58 0 -46 22 -110 48 -138 21 -24
84 -24 105 0 23 25 22 94 -3 142 -34 66 -82 87 -128 54z m96 -80 c21 -62 -1
-114 -42 -98 -33 13 -53 137 -25 155 21 13 52 -14 67 -57z"/>
<path d="M5594 7870 c3 -19 14 -83 25 -141 16 -94 16 -111 4 -140 -8 -19 -13
-49 -11 -69 3 -34 5 -36 75 -60 40 -13 74 -22 77 -19 9 8 -18 91 -89 275 -65
170 -92 221 -81 154z"/>
<path d="M7964 7864 c21 -82 21 -80 -25 -92 -24 -6 -46 -9 -51 -6 -4 3 -13 23
-19 44 -11 37 -39 56 -39 28 1 -43 58 -238 69 -238 4 0 12 4 19 9 11 7 11 15
-2 46 -23 54 -21 60 25 74 48 15 53 10 63 -50 4 -24 12 -39 21 -39 24 0 26 16
10 87 -26 111 -45 163 -62 163 -11 0 -14 -6 -9 -26z"/>
<path d="M7679 7782 c-29 -26 -31 -32 -25 -73 8 -56 44 -119 77 -138 29 -16
62 -10 97 17 22 17 23 21 11 68 -6 27 -15 52 -18 56 -8 10 -81 -10 -81 -21 0
-5 14 -14 30 -20 23 -8 30 -16 30 -36 0 -24 -3 -26 -32 -23 -26 2 -37 11 -55
43 -30 52 -26 86 11 104 23 11 37 11 58 3 32 -12 35 -6 12 26 -22 32 -75 30
-115 -6z"/>
<path d="M9060 7780 c0 -5 5 -10 10 -10 6 0 10 5 10 10 0 6 -4 10 -10 10 -5 0
-10 -4 -10 -10z"/>
<path d="M7534 7745 c-60 -19 -86 -34 -78 -47 4 -6 21 -8 40 -5 l33 6 26 -87
c29 -95 39 -112 56 -95 10 10 -11 89 -48 181 -3 7 7 14 27 18 21 5 30 12 28
23 -4 21 -32 23 -84 6z"/>
<path d="M7395 7700 c-3 -5 2 -26 11 -47 33 -78 35 -85 21 -77 -6 4 -34 24
-62 45 -64 48 -91 54 -88 19 3 -29 62 -191 74 -204 6 -6 13 -6 19 0 7 7 4 33
-9 77 -10 37 -16 67 -14 67 3 0 26 -17 52 -38 60 -51 100 -76 107 -69 7 7 -62
205 -78 224 -12 15 -25 17 -33 3z"/>
<path d="M560 6847 c-134 -52 -217 -126 -244 -217 -21 -70 -20 -97 5 -221 25
-125 31 -139 61 -132 103 23 99 21 92 61 -4 20 -15 70 -25 110 -23 90 -13 150
32 206 60 71 161 96 247 61 72 -31 95 -63 137 -193 15 -45 29 -82 32 -82 3 0
30 7 60 16 55 16 55 16 49 50 -13 65 -74 213 -104 252 -50 63 -119 94 -221 99
-57 2 -98 -1 -121 -10z"/>
<path d="M10175 6664 c-27 -8 -59 -19 -70 -24 -38 -16 -240 -90 -334 -120
-135 -45 -191 -75 -191 -103 0 -13 27 -89 59 -170 33 -81 65 -164 71 -185 21
-65 337 -883 382 -987 16 -38 54 -135 84 -214 30 -80 56 -147 59 -149 3 -3 5
439 5 981 0 543 -3 987 -7 986 -5 0 -30 -7 -58 -15z"/>
<path d="M8445 6609 c-13 -20 5 -59 35 -74 37 -19 50 -19 50 1 0 8 5 12 10 9
22 -14 8 18 -20 45 -31 30 -63 39 -75 19z"/>
<path d="M1119 6466 c-5 -5 -229 -76 -534 -168 -126 -38 -250 -78 -274 -89
-44 -19 -44 -19 -38 -62 3 -23 35 -116 70 -207 35 -91 69 -182 76 -203 19 -58
55 -92 156 -153 85 -51 200 -98 335 -138 l55 -16 66 69 c117 124 236 317 259
423 11 49 10 64 -14 159 -75 289 -126 415 -157 385z m-250 -292 c48 -40 60
-125 22 -149 -19 -11 -12 -39 19 -89 41 -63 49 -103 24 -112 -11 -4 -46 -17
-79 -30 -32 -13 -60 -22 -61 -21 -2 1 -9 47 -16 102 l-13 99 -33 7 c-18 4 -39
15 -47 25 -17 23 -19 97 -4 127 35 70 130 90 188 41z"/>
<path d="M9100 5391 c0 -11 4 -22 9 -25 4 -3 6 6 3 19 -5 30 -12 33 -12 6z"/>
<path d="M1707 5294 c-69 -22 -78 -28 -75 -47 4 -23 6 -24 49 -13 23 5 28 2
34 -22 18 -74 59 -172 72 -172 27 0 25 32 -5 117 -32 89 -33 103 -4 103 33 0
45 15 33 39 -14 25 -7 25 -104 -5z"/>
<path d="M1498 5221 c-30 -24 -43 -64 -28 -91 11 -20 66 -40 113 -40 33 0 37
-28 7 -55 -16 -14 -24 -15 -51 -6 -18 6 -36 11 -40 11 -16 0 -9 -30 12 -51 18
-18 28 -20 62 -15 23 4 49 14 59 23 22 20 41 77 33 102 -7 23 -53 41 -105 41
-44 0 -68 21 -46 39 8 7 28 12 43 11 49 -3 55 -1 51 23 -4 31 -73 37 -110 8z"/>
<path d="M1320 5150 c-42 -42 -46 -107 -12 -175 24 -50 43 -65 79 -65 52 0 83
37 83 98 0 51 -21 114 -48 145 -21 24 -77 22 -102 -3z m90 -69 c21 -43 28 -89
16 -109 -4 -7 -21 -12 -37 -12 -25 0 -33 6 -45 35 -41 98 19 177 66 86z"/>
<path d="M1190 5106 c0 -13 7 -29 15 -36 24 -20 17 -40 -20 -56 -48 -20 -52
-19 -65 24 -17 54 -68 89 -57 40 56 -256 58 -263 95 -239 11 6 10 16 -4 50
-19 49 -13 59 37 67 33 6 35 4 49 -38 11 -31 21 -44 38 -46 13 -2 22 2 22 10
0 24 -38 152 -60 201 -22 50 -50 63 -50 23z"/>
<path d="M919 5045 c-15 -8 -34 -30 -43 -49 -14 -30 -15 -42 -5 -83 29 -119
72 -146 170 -106 41 16 41 16 35 57 -4 23 -8 51 -10 64 -5 32 -6 33 -59 15
-39 -13 -47 -20 -45 -37 2 -17 9 -21 36 -20 33 2 37 -2 26 -30 -4 -10 -18 -16
-40 -16 -40 0 -63 29 -71 88 -7 53 20 82 77 82 43 0 52 14 23 36 -23 17 -61
17 -94 -1z"/>
<path d="M744 4986 c-34 -13 -66 -26 -73 -30 -15 -10 -14 -31 3 -45 10 -9 15
-8 20 4 3 8 14 15 24 15 16 0 23 -17 43 -100 22 -90 26 -100 47 -100 28 0 28
8 -3 114 -14 47 -25 91 -25 96 0 6 14 13 30 17 34 6 34 7 20 34 -13 23 -10 23
-86 -5z"/>
<path d="M586 4932 c-3 -5 4 -32 14 -61 31 -81 26 -91 -22 -45 -51 49 -87 74
-107 74 -11 0 -12 -11 -8 -52 9 -76 47 -196 64 -202 38 -15 42 20 13 95 -12
28 -18 54 -16 57 3 3 27 -15 54 -40 123 -115 139 -104 91 62 -30 106 -36 120
-56 120 -12 0 -24 -4 -27 -8z"/>
<path d="M1429 4222 c10 -7 5 -12 -21 -21 -55 -18 -115 -77 -144 -139 -37 -80
-41 -148 -15 -255 12 -49 21 -93 21 -97 0 -5 -20 -18 -45 -29 -25 -11 -48 -27
-51 -35 -10 -25 183 -590 210 -615 28 -27 65 -27 151 0 l66 20 106 -21 c124
-24 112 -28 223 82 41 41 103 93 137 116 105 71 110 89 64 234 -16 51 -55 176
-86 278 -31 101 -58 186 -60 189 -3 2 -33 -5 -67 -17 l-63 -20 -8 36 c-12 55
-71 172 -112 220 -21 23 -53 50 -74 58 -40 18 -256 32 -232 16z m183 -138 c15
-8 39 -30 55 -50 30 -40 75 -164 64 -177 -6 -6 -67 -29 -276 -103 -22 -7 -45
-14 -51 -14 -12 0 -40 85 -48 150 -8 65 7 118 47 157 59 60 137 73 209 37z
m103 -450 c12 -8 30 -30 41 -49 18 -35 18 -35 -5 -78 l-24 -44 33 -67 c19 -39
29 -70 24 -75 -14 -13 -132 -50 -138 -43 -3 3 -6 29 -6 58 0 67 -13 100 -42
109 -43 13 -58 35 -58 84 0 53 28 107 63 121 27 11 82 4 112 -16z"/>
<path d="M8962 3240 c-94 -20 -162 -89 -182 -185 -13 -61 -9 -90 22 -182 15
-44 27 -63 38 -63 24 0 80 21 80 29 0 5 -9 34 -20 66 -29 85 -27 133 10 176
53 65 123 75 183 26 15 -12 45 -56 66 -97 40 -78 43 -80 96 -60 l23 9 -20 59
c-56 172 -159 250 -296 222z"/>
<path d="M9285 2920 c-27 -10 -149 -50 -270 -89 -121 -39 -227 -75 -235 -80
-17 -12 -8 -42 87 -301 44 -119 73 -184 92 -203 l28 -28 99 39 c54 22 110 43
124 47 52 15 286 107 298 117 21 18 13 75 -28 196 -70 209 -114 317 -130 318
-8 1 -37 -6 -65 -16z m-85 -214 c16 -18 21 -32 16 -50 -3 -15 -9 -37 -12 -50
-4 -17 4 -38 30 -77 33 -50 37 -69 15 -69 -6 0 -29 -9 -51 -20 -64 -31 -67
-28 -70 47 -3 64 -5 69 -33 82 -39 18 -45 28 -45 78 0 33 5 46 26 62 38 30 94
28 124 -3z"/>
<path d="M1941 2600 c-65 -23 -89 -39 -136 -86 -39 -39 -51 -62 -66 -136 -9
-40 -7 -60 17 -142 35 -126 40 -132 88 -116 21 6 40 19 43 27 3 8 -5 57 -17
108 l-23 95 24 47 c57 111 216 125 284 25 13 -19 34 -64 47 -99 l22 -65 41 7
c22 3 44 10 48 14 5 5 2 36 -7 70 -36 140 -103 228 -189 249 -90 22 -121 22
-176 2z"/>
<path d="M2355 2261 c-33 -10 -98 -33 -145 -53 -47 -19 -141 -52 -210 -72
-219 -66 -255 -78 -269 -91 -11 -11 -5 -38 38 -167 86 -256 124 -349 152 -370
25 -19 26 -19 125 20 54 22 131 49 169 61 67 21 177 68 313 133 62 29 66 35
62 88 -2 31 -139 440 -153 458 -11 15 -8 15 -82 -7z m-143 -228 c34 -30 40
-61 21 -95 -18 -29 -18 -30 20 -99 27 -49 34 -71 25 -74 -47 -17 -132 -45
-138 -45 -4 0 -10 30 -13 67 -4 49 -10 71 -22 78 -52 30 -65 47 -65 81 0 44
24 92 53 104 32 14 95 5 119 -17z"/>
<path d="M4155 1004 c-77 -30 -192 -71 -255 -91 -125 -39 -212 -77 -231 -99
-9 -11 -6 -28 14 -77 15 -34 52 -138 82 -232 55 -167 81 -215 116 -215 9 0 50
14 90 31 41 18 110 44 154 60 129 45 282 106 317 126 52 30 49 59 -32 298 -67
199 -91 256 -108 254 -4 0 -70 -25 -147 -55z m-35 -189 c38 -20 48 -57 26
-102 -17 -35 -16 -36 15 -84 17 -27 29 -55 26 -63 -3 -8 -30 -22 -59 -31 -29
-10 -59 -20 -65 -23 -10 -3 -13 11 -13 50 0 57 -9 74 -52 101 -32 20 -44 67
-28 108 23 54 92 74 150 44z"/>
</g>
</svg>
